<svg width="1200" height="630" viewBox="0 0 1200 630" fill="none" xmlns="http://www.w3.org/2000/svg">
<g clip-path="url(#clip0_360_171)">
<rect width="1200" height="630" fill="#F6F6F6"/>
<rect x="-630" y="295" width="1085" height="810" fill="url(#paint0_radial_360_171)" fill-opacity="0.4"/>
<rect x="-471" y="-227" width="1085" height="810" fill="url(#paint1_radial_360_171)" fill-opacity="0.5"/>
<rect x="583" y="-433" width="1085" height="810" fill="url(#paint2_radial_360_171)" fill-opacity="0.4"/>
<mask id="mask0_360_171" style="mask-type:alpha" maskUnits="userSpaceOnUse" x="635" y="295" width="308" height="40">
<path d="M943 295H635V334.485H943V295Z" fill="#D9D9D9"/>
</mask>
<g mask="url(#mask0_360_171)">
<path d="M722.836 297.167C726.243 297.167 729.111 298.313 731.44 300.605C733.768 302.897 734.932 305.711 734.932 309.048C734.932 312.385 733.768 315.2 731.44 317.492C729.111 319.784 726.243 320.93 722.836 320.93H716.611V332.558H709.626V297.167H722.836ZM722.836 314.407C724.32 314.407 725.552 313.902 726.53 312.891C727.509 311.846 727.998 310.565 727.998 309.048C727.998 307.498 727.509 306.217 726.53 305.206C725.552 304.194 724.32 303.689 722.836 303.689H716.611V314.407H722.836ZM756.727 307.279H763.255V332.558H756.727V329.575C754.769 332.036 752.02 333.266 748.477 333.266C745.103 333.266 742.202 331.985 739.771 329.424C737.376 326.828 736.179 323.66 736.179 319.919C736.179 316.177 737.376 313.026 739.771 310.464C742.202 307.868 745.103 306.571 748.477 306.571C752.02 306.571 754.769 307.801 756.727 310.262V307.279ZM744.681 325.076C745.997 326.39 747.668 327.047 749.691 327.047C751.716 327.047 753.386 326.39 754.702 325.076C756.051 323.727 756.727 322.008 756.727 319.919C756.727 317.829 756.051 316.127 754.702 314.812C753.386 313.464 751.716 312.79 749.691 312.79C747.668 312.79 745.997 313.464 744.681 314.812C743.365 316.127 742.708 317.829 742.708 319.919C742.708 322.008 743.365 323.727 744.681 325.076ZM775.704 311.627C776.312 310.009 777.307 308.795 778.69 307.986C780.107 307.177 781.676 306.773 783.397 306.773V314.054C781.406 313.818 779.618 314.222 778.032 315.267C776.48 316.312 775.704 318.048 775.704 320.475V332.558H769.175V307.279H775.704V311.627ZM805.508 307.279H812.036V332.558H805.508V329.575C803.551 332.036 800.802 333.266 797.259 333.266C793.884 333.266 790.983 331.985 788.554 329.424C786.158 326.828 784.96 323.66 784.96 319.919C784.96 316.177 786.158 313.026 788.554 310.464C790.983 307.868 793.884 306.571 797.259 306.571C800.802 306.571 803.551 307.801 805.508 310.262V307.279ZM793.463 325.076C794.778 326.39 796.449 327.047 798.473 327.047C800.498 327.047 802.168 326.39 803.483 325.076C804.833 323.727 805.508 322.008 805.508 319.919C805.508 317.829 804.833 316.127 803.483 314.812C802.168 313.464 800.498 312.79 798.473 312.79C796.449 312.79 794.778 313.464 793.463 314.812C792.147 316.127 791.489 317.829 791.489 319.919C791.489 322.008 792.147 323.727 793.463 325.076ZM837.138 297.167H843.667V332.558H837.138V329.575C835.216 332.036 832.483 333.266 828.939 333.266C825.532 333.266 822.613 331.985 820.184 329.424C817.789 326.828 816.591 323.66 816.591 319.919C816.591 316.177 817.789 313.026 820.184 310.464C822.613 307.868 825.532 306.571 828.939 306.571C832.483 306.571 835.216 307.801 837.138 310.262V297.167ZM825.094 325.076C826.443 326.39 828.129 327.047 830.154 327.047C832.179 327.047 833.849 326.39 835.164 325.076C836.48 323.727 837.138 322.008 837.138 319.919C837.138 317.829 836.48 316.127 835.164 314.812C833.849 313.464 832.179 312.79 830.154 312.79C828.129 312.79 826.443 313.464 825.094 314.812C823.777 316.127 823.119 317.829 823.119 319.919C823.119 322.008 823.777 323.727 825.094 325.076ZM855.154 322.598C856.031 325.767 858.41 327.351 862.291 327.351C864.788 327.351 866.677 326.508 867.959 324.823L873.222 327.856C870.726 331.463 867.047 333.266 862.189 333.266C858.005 333.266 854.648 332.002 852.118 329.474C849.587 326.946 848.322 323.761 848.322 319.919C848.322 316.11 849.57 312.941 852.067 310.413C854.564 307.852 857.769 306.571 861.683 306.571C865.394 306.571 868.448 307.852 870.844 310.413C873.273 312.975 874.488 316.143 874.488 319.919C874.488 320.761 874.403 321.654 874.234 322.598H855.154ZM855.053 317.542H867.959C867.587 315.823 866.811 314.542 865.631 313.7C864.484 312.857 863.168 312.436 861.683 312.436C859.928 312.436 858.478 312.891 857.331 313.801C856.183 314.677 855.424 315.924 855.053 317.542ZM893.418 297.167C898.277 297.167 902.326 298.869 905.565 302.273C908.838 305.678 910.474 309.874 910.474 314.863C910.474 319.851 908.838 324.048 905.565 327.452C902.326 330.856 898.277 332.558 893.418 332.558H879.349V297.167H893.418ZM893.418 325.885C896.489 325.885 898.986 324.873 900.909 322.851C902.832 320.795 903.794 318.132 903.794 314.863C903.794 311.593 902.832 308.947 900.909 306.925C898.986 304.869 896.489 303.841 893.418 303.841H886.333V325.885H893.418ZM936.837 314.205C939.941 315.992 941.493 318.688 941.493 322.295C941.493 325.295 940.43 327.755 938.304 329.677C936.179 331.598 933.564 332.558 930.46 332.558H915.429V297.167H929.397C932.434 297.167 934.981 298.11 937.039 299.998C939.132 301.852 940.177 304.228 940.177 307.127C940.177 310.059 939.064 312.419 936.837 314.205ZM929.397 303.689H922.413V311.475H929.397C930.477 311.475 931.371 311.104 932.079 310.363C932.822 309.621 933.193 308.694 933.193 307.582C933.193 306.47 932.839 305.543 932.13 304.801C931.421 304.06 930.511 303.689 929.397 303.689ZM930.46 326.036C931.641 326.036 932.619 325.649 933.396 324.873C934.172 324.064 934.56 323.053 934.56 321.84C934.56 320.66 934.172 319.683 933.396 318.907C932.619 318.098 931.641 317.694 930.46 317.694H922.413V326.036H930.46Z" fill="black"/>
<path fill-rule="evenodd" clip-rule="evenodd" d="M668.359 296.926H658.849V332.709H668.359V296.926Z" fill="black"/>
<path fill-rule="evenodd" clip-rule="evenodd" d="M657.399 296.926H647.889V332.709H657.399V296.926Z" fill="black"/>
<path fill-rule="evenodd" clip-rule="evenodd" d="M646.439 296.926H636.928V332.709H646.439V296.926Z" fill="black"/>
<path fill-rule="evenodd" clip-rule="evenodd" d="M669.809 296.929V320.096C669.809 323.45 671.142 326.637 673.515 329.008C675.887 331.378 679.078 332.71 682.436 332.71H687.995V323.209H682.436C681.608 323.209 680.823 322.874 680.239 322.29C679.655 321.707 679.32 320.923 679.32 320.096V306.654C679.32 301.38 675.06 297.05 669.809 296.929Z" fill="black"/>
</g>
<line x1="557.5" y1="285" x2="557.5" y2="345" stroke="black" stroke-width="3"/>
<path d="M299.726 299.41C299.72 299.269 299.708 299.132 299.695 298.992C299.692 298.958 299.692 298.922 299.686 298.888C299.677 298.802 299.665 298.72 299.653 298.635C299.641 298.546 299.631 298.461 299.619 298.375C299.61 298.314 299.598 298.253 299.586 298.195C299.567 298.089 299.549 297.979 299.528 297.872C299.509 297.786 299.488 297.704 299.47 297.619C299.451 297.536 299.433 297.457 299.415 297.374C299.393 297.289 299.366 297.207 299.341 297.121C299.32 297.042 299.299 296.966 299.274 296.886C299.247 296.801 299.216 296.715 299.186 296.63C299.161 296.557 299.137 296.483 299.112 296.41C299.073 296.303 299.03 296.2 298.99 296.096C298.969 296.044 298.951 295.995 298.929 295.943C298.88 295.83 298.832 295.721 298.78 295.611C298.761 295.571 298.743 295.528 298.725 295.489C298.676 295.385 298.621 295.284 298.569 295.184C298.545 295.138 298.523 295.092 298.499 295.046C298.438 294.933 298.371 294.82 298.307 294.711C298.288 294.68 298.273 294.65 298.255 294.619C298.185 294.503 298.111 294.39 298.035 294.277C298.02 294.253 298.004 294.228 297.989 294.204C297.898 294.07 297.803 293.935 297.705 293.804C297.614 293.682 297.519 293.56 297.421 293.441C297.415 293.432 297.409 293.423 297.4 293.414C295.514 291.128 292.666 289.676 289.476 289.673V289.667L289.466 289.673H289.47C288.584 289.673 287.723 289.786 286.902 289.996C286.411 290.121 285.932 290.286 285.471 290.478C285.318 290.542 285.166 290.613 285.016 290.683C281.985 292.141 279.787 295.046 279.302 298.5H279.295C279.082 299.98 278.627 301.381 277.98 302.669H278.001C275.748 307.136 271.121 310.202 265.773 310.202C263.386 310.202 261.145 309.592 259.192 308.521C258.963 308.396 258.685 308.561 258.685 308.82V310.202H258.664V330.729H279.201V320.464H279.222V315.332C279.222 312.497 281.521 310.199 284.357 310.199H289.491C290.37 310.199 291.222 310.087 292.037 309.876C292.528 309.748 293.007 309.586 293.468 309.394C293.621 309.33 293.774 309.26 293.923 309.189C297.064 307.676 299.317 304.609 299.686 300.987C299.72 300.642 299.738 300.292 299.738 299.938C299.738 299.761 299.735 299.584 299.726 299.41Z" fill="black"/>
<path d="M335.044 296.651C342.097 296.651 346.686 300.63 346.686 307.029C346.686 311.713 343.99 315.188 339.757 316.674L348.047 330.83H341.9L334.165 317.404H325.624V330.83H320.333V296.651H335.05H335.044ZM325.62 301.411V312.696H334.794C339.003 312.696 341.167 310.352 341.167 307.029C341.167 303.706 339 301.411 334.794 301.411H325.62Z" fill="black"/>
<path d="M361.518 306.147C368.573 306.147 373.16 311.386 373.16 317.858C373.16 318.615 373.109 319.396 372.959 320.174H354.186C354.412 323.802 357.513 326.646 361.695 326.646C364.72 326.646 367.137 325.362 368.951 322.515L372.629 325.185C370.385 329.216 365.978 331.33 361.695 331.33C354.387 331.33 349.021 325.942 349.021 318.762C349.021 311.582 354.186 306.144 361.518 306.144M368.094 316.446C367.791 313.046 364.943 310.651 361.466 310.651C357.763 310.651 354.94 313.043 354.311 316.446H368.094Z" fill="black"/>
<path d="M377.791 330.83V306.651H382.806V309.699C383.612 308.466 385.905 306.147 390.239 306.147C396.891 306.147 400.395 310.279 400.395 316.147V330.83H395.408V317.202C395.408 313.199 393.216 310.88 389.461 310.88C385.706 310.88 382.785 313.196 382.785 317.202V330.83H377.791Z" fill="black"/>
<path d="M416.65 306.147C420.756 306.147 423.479 307.658 425.267 309.949V295.367H430.255V330.83H425.267V327.531C423.479 329.823 420.756 331.333 416.65 331.333C409.772 331.333 404.504 326.045 404.504 318.615C404.504 311.185 409.769 306.147 416.65 306.147ZM409.495 318.615C409.495 323.073 412.593 326.851 417.254 326.851C421.915 326.851 425.243 323.073 425.243 318.615C425.243 314.157 421.891 310.63 417.254 310.63C412.618 310.63 409.495 314.157 409.495 318.615Z" fill="black"/>
<path d="M446.982 306.147C454.037 306.147 458.625 311.386 458.625 317.858C458.625 318.615 458.573 319.396 458.423 320.174H439.65C439.876 323.802 442.977 326.646 447.159 326.646C450.185 326.646 452.602 325.362 454.415 322.515L458.094 325.185C455.85 329.216 451.442 331.33 447.159 331.33C439.851 331.33 434.485 325.942 434.485 318.762C434.485 311.557 439.65 306.144 446.982 306.144M453.558 316.446C453.255 313.046 450.408 310.651 446.931 310.651C443.228 310.651 440.404 313.043 439.775 316.446H453.558Z" fill="black"/>
<path d="M463.444 330.83V306.651H468.46V309.949C469.821 307.304 472.114 306.147 474.76 306.147C476.65 306.147 478.087 306.751 478.087 306.751L477.559 311.335C477.282 311.234 476.198 310.779 474.61 310.779C471.94 310.779 468.463 312.189 468.463 317.657V330.83H463.444Z" fill="black"/>
</g>
<defs>
<radialGradient id="paint0_radial_360_171" cx="0" cy="0" r="1" gradientTransform="matrix(0.6824 -405 590.122 0.955255 -87.5 700)" gradientUnits="userSpaceOnUse">
<stop stop-color="#F1F5F9" stop-opacity="0.25"/>
<stop offset="1" stop-color="#F1F5F9" stop-opacity="0"/>
</radialGradient>
<radialGradient id="paint1_radial_360_171" cx="0" cy="0" r="1" gradientTransform="matrix(0.6824 -405 590.122 0.955255 71.5 178)" gradientUnits="userSpaceOnUse">
<stop stop-color="white" stop-opacity="0.1"/>
<stop offset="1" stop-color="white" stop-opacity="0"/>
</radialGradient>
<radialGradient id="paint2_radial_360_171" cx="0" cy="0" r="1" gradientTransform="matrix(0.6824 -405 590.122 0.955255 1125.5 -28.0001)" gradientUnits="userSpaceOnUse">
<stop stop-color="#F1F5F9" stop-opacity="0.25"/>
<stop offset="1" stop-color="#F1F5F9" stop-opacity="0"/>
</radialGradient>
<clipPath id="clip0_360_171">
<rect width="1200" height="630" fill="white"/>
</clipPath>
</defs>
</svg>
