<svg width="1200" height="630" viewBox="0 0 1200 630" fill="none" xmlns="http://www.w3.org/2000/svg">
<g clip-path="url(#clip0_325_862)">
<rect width="1200" height="630" fill="white"/>
<g clip-path="url(#clip1_325_862)">
<path d="M1200 0H0V630H1200V0Z" fill="white"/>
<g filter="url(#filter0_f_325_862)">
<path d="M519.156 363.02L452.925 427.152L332.475 479.453L186.106 508.929L-184.056 731.523L2.81259 298.188L173.625 297.547L320.719 254.602L498.25 55.2883L519.156 363.02Z" fill="#FCB055"/>
</g>
<g filter="url(#filter1_f_325_862)">
<path d="M525.644 65.0475L329.831 261.193L91.031 356.236L-138.6 200.27L-141.794 -71.6042L43.5685 -151.095L395.519 -207.976L525.644 65.0475Z" fill="#FB847C"/>
</g>
<g filter="url(#filter2_f_325_862)">
<path d="M757 379.301L1197.59 590.088L531.831 579.11L306.938 607.256L-126.587 683.614L146.188 380.952L373.475 361.427L600.531 405.796L757 379.301Z" fill="#B6B8FD"/>
</g>
<g filter="url(#filter3_f_325_862)">
<path d="M1136.06 607.571L811.694 889.029L534.156 943.063L367.569 865.159L235.006 793.036L192.237 673.003L249.206 522.684L461.794 479.43L708.137 510.726L1136.06 607.571Z" fill="#609EFF"/>
</g>
<g filter="url(#filter4_f_325_862)">
<path d="M1141.26 -116.509L1388 193.842L1178.94 359.042L792.912 235.503L742.962 113.073L837.875 -48.1717L1141.26 -116.509Z" fill="#FCB055"/>
</g>
<g filter="url(#filter5_f_325_862)">
<path d="M1369.84 974.715L1272.02 1163.77L1069.46 1184.58L900.769 1132.16L835.294 974.715L884.406 801.996L1069.46 713.656L1153.28 812.688L1369.84 974.715Z" fill="#FB847C"/>
</g>
<path opacity="0.65" d="M1200 0H0V630H1200V0Z" fill="white"/>
<g filter="url(#filter6_d_325_862)">
<path d="M1028.35 133H171.285C163.396 133 157 139.397 157 147.288V682.348C157 690.239 163.396 696.635 171.285 696.635H1028.35C1036.24 696.635 1042.64 690.239 1042.64 682.348V147.288C1042.64 139.397 1036.24 133 1028.35 133Z" fill="#131920"/>
<path d="M1028.35 133.714H171.285C163.79 133.714 157.714 139.791 157.714 147.288V682.348C157.714 689.844 163.79 695.921 171.285 695.921H1028.35C1035.85 695.921 1041.92 689.844 1041.92 682.348V147.288C1041.92 139.791 1035.85 133.714 1028.35 133.714Z" stroke="#131920" stroke-width="2.08879"/>
<path d="M323.288 344.09C321.693 344.09 320.188 343.794 318.775 343.201C317.361 342.608 316.13 341.798 315.082 340.772L317.065 338.447C317.931 339.245 318.911 339.895 320.006 340.396C321.1 340.875 322.262 341.114 323.493 341.114C324.907 341.114 326.001 340.818 326.776 340.225C327.551 339.632 327.939 338.88 327.939 337.968C327.939 337.238 327.768 336.657 327.426 336.224C327.084 335.791 326.617 335.425 326.024 335.129C325.454 334.833 324.793 334.536 324.041 334.24L320.895 332.838C320.142 332.541 319.39 332.154 318.638 331.675C317.908 331.173 317.304 330.546 316.825 329.794C316.347 329.019 316.107 328.084 316.107 326.989C316.107 325.826 316.427 324.789 317.065 323.877C317.703 322.942 318.592 322.213 319.732 321.688C320.872 321.141 322.182 320.867 323.664 320.867C325.055 320.867 326.354 321.129 327.563 321.654C328.771 322.155 329.808 322.828 330.674 323.672L328.896 325.861C328.166 325.222 327.369 324.732 326.503 324.39C325.659 324.025 324.656 323.843 323.493 323.843C322.331 323.843 321.385 324.105 320.655 324.629C319.926 325.154 319.561 325.872 319.561 326.784C319.561 327.445 319.744 327.981 320.108 328.391C320.496 328.802 320.986 329.144 321.579 329.417C322.194 329.691 322.821 329.965 323.459 330.238L326.503 331.572C327.437 331.937 328.269 332.381 328.999 332.906C329.751 333.407 330.344 334.035 330.777 334.787C331.21 335.539 331.427 336.463 331.427 337.557C331.427 338.766 331.096 339.871 330.435 340.875C329.797 341.855 328.862 342.642 327.631 343.235C326.423 343.805 324.975 344.09 323.288 344.09ZM337.158 343.679V321.278H351.246V324.151H340.577V330.546H349.604V333.419H340.577V340.806H351.588V343.679H337.158ZM358.277 343.679V321.278H361.662V340.806H372.433V343.679H358.277ZM378.164 343.679V321.278H392.252V324.151H381.584V330.546H390.611V333.419H381.584V340.806H392.594V343.679H378.164ZM406.977 344.09C405.586 344.09 404.287 343.839 403.079 343.337C401.893 342.813 400.845 342.06 399.933 341.08C399.044 340.077 398.337 338.857 397.813 337.421C397.311 335.984 397.061 334.354 397.061 332.53C397.061 330.09 397.505 328.004 398.394 326.271C399.284 324.515 400.491 323.181 402.019 322.269C403.546 321.334 405.29 320.867 407.251 320.867C408.619 320.867 409.838 321.152 410.91 321.722C411.981 322.269 412.859 322.908 413.543 323.637L411.628 325.792C411.057 325.177 410.408 324.698 409.679 324.356C408.972 324.014 408.162 323.843 407.251 323.843C405.928 323.843 404.766 324.196 403.763 324.903C402.76 325.587 401.973 326.567 401.404 327.844C400.856 329.121 400.583 330.649 400.583 332.427C400.583 334.206 400.856 335.745 401.404 337.044C401.973 338.344 402.76 339.347 403.763 340.054C404.789 340.761 405.974 341.114 407.319 341.114C408.299 341.114 409.177 340.909 409.952 340.499C410.727 340.066 411.445 339.484 412.106 338.754L414.021 340.841C413.155 341.867 412.141 342.665 410.978 343.235C409.815 343.805 408.482 344.09 406.977 344.09ZM423.992 343.679V324.151H416.777V321.278H434.627V324.151H427.412V343.679H423.992Z" fill="#D1CD74"/>
<path d="M462.64 340.054L460.998 338.925L464.623 333.351L459.152 330.957L459.733 329.178L465.444 330.957L465.751 324.561H467.666L467.974 330.957L473.685 329.178L474.266 330.957L468.795 333.351L472.419 338.925L470.778 340.054L466.709 334.753L462.64 340.054ZM501.766 343.679V321.278H515.786V324.151H505.185V331.093H514.178V334H505.185V343.679H501.766ZM521.107 343.679V321.278H528.322C529.872 321.278 531.251 321.483 532.459 321.893C533.667 322.281 534.614 322.953 535.298 323.911C536.004 324.869 536.358 326.146 536.358 327.742C536.358 329.292 536.004 330.569 535.298 331.572C534.614 332.576 533.667 333.328 532.459 333.829C531.251 334.331 529.872 334.582 528.322 334.582H524.526V343.679H521.107ZM524.526 331.812H527.912C529.553 331.812 530.807 331.481 531.673 330.82C532.539 330.136 532.972 329.11 532.972 327.742C532.972 326.374 532.539 325.416 531.673 324.869C530.807 324.299 529.553 324.014 527.912 324.014H524.526V331.812ZM527.672 333.658L530.237 331.709L537.144 343.679H533.28L527.672 333.658ZM548.722 344.09C547.013 344.09 545.496 343.634 544.174 342.722C542.875 341.787 541.849 340.453 541.097 338.72C540.367 336.964 540.003 334.855 540.003 332.393C540.003 329.953 540.367 327.878 541.097 326.168C541.849 324.436 542.875 323.124 544.174 322.235C545.496 321.323 547.013 320.867 548.722 320.867C550.432 320.867 551.937 321.323 553.236 322.235C554.558 323.124 555.584 324.436 556.314 326.168C557.066 327.878 557.442 329.953 557.442 332.393C557.442 334.855 557.066 336.964 556.314 338.72C555.584 340.453 554.558 341.787 553.236 342.722C551.937 343.634 550.432 344.09 548.722 344.09ZM548.722 341.114C549.771 341.114 550.683 340.772 551.458 340.088C552.233 339.382 552.837 338.378 553.27 337.079C553.703 335.779 553.92 334.217 553.92 332.393C553.92 330.569 553.703 329.03 553.27 327.776C552.837 326.499 552.233 325.53 551.458 324.869C550.683 324.185 549.771 323.843 548.722 323.843C547.674 323.843 546.762 324.185 545.987 324.869C545.212 325.53 544.607 326.499 544.174 327.776C543.742 329.03 543.525 330.569 543.525 332.393C543.525 334.217 543.742 335.779 544.174 337.079C544.607 338.378 545.212 339.382 545.987 340.088C546.762 340.772 547.674 341.114 548.722 341.114ZM561.292 343.679V321.278H565.259L568.165 330.409L569.157 333.898H569.294L570.285 330.409L573.192 321.278H577.159V343.679H574.013V333.59C574.013 333.02 574.036 332.359 574.081 331.606C574.127 330.831 574.173 330.033 574.218 329.212C574.286 328.391 574.344 327.616 574.389 326.887C574.457 326.157 574.515 325.53 574.56 325.006H574.457L573.055 329.828L570.217 337.728H568.097L565.293 329.828L563.925 325.006H563.823C563.891 325.53 563.949 326.157 563.994 326.887C564.062 327.616 564.12 328.391 564.165 329.212C564.21 330.033 564.256 330.831 564.301 331.606C564.347 332.359 564.37 333.02 564.37 333.59V343.679H561.292ZM611.087 344.09C610.266 344.09 609.412 343.896 608.522 343.508C607.633 343.098 606.813 342.539 606.06 341.833H605.958L605.65 343.679H602.983V319.431H606.368V325.861L606.231 328.939H606.334C607.064 328.209 607.896 327.627 608.83 327.194C609.788 326.761 610.734 326.545 611.668 326.545C613.15 326.545 614.404 326.898 615.43 327.605C616.456 328.311 617.231 329.303 617.755 330.58C618.302 331.834 618.576 333.328 618.576 335.061C618.576 336.953 618.223 338.583 617.516 339.951C616.809 341.297 615.886 342.323 614.746 343.03C613.629 343.736 612.41 344.09 611.087 344.09ZM610.437 341.285C611.326 341.285 612.113 341.046 612.797 340.567C613.504 340.088 614.062 339.393 614.472 338.481C614.883 337.546 615.088 336.417 615.088 335.095C615.088 333.932 614.928 332.929 614.609 332.085C614.313 331.219 613.857 330.558 613.241 330.101C612.626 329.623 611.805 329.383 610.779 329.383C610.095 329.383 609.377 329.566 608.625 329.93C607.873 330.273 607.12 330.842 606.368 331.641V339.541C607.075 340.157 607.793 340.601 608.522 340.875C609.252 341.148 609.89 341.285 610.437 341.285ZM631.762 344.09C630.075 344.09 628.536 343.748 627.145 343.064C625.778 342.38 624.695 341.376 623.897 340.054C623.099 338.732 622.7 337.147 622.7 335.3C622.7 333.476 623.099 331.914 623.897 330.615C624.718 329.315 625.778 328.311 627.077 327.605C628.377 326.898 629.767 326.545 631.249 326.545C632.89 326.545 634.28 326.887 635.421 327.571C636.561 328.232 637.426 329.155 638.019 330.341C638.635 331.504 638.943 332.872 638.943 334.445C638.943 334.787 638.931 335.129 638.908 335.471C638.886 335.791 638.852 336.064 638.806 336.292H625.06V333.795H636.686L635.933 334.616C635.933 332.815 635.523 331.47 634.702 330.58C633.882 329.669 632.765 329.212 631.351 329.212C630.371 329.212 629.471 329.452 628.65 329.93C627.852 330.387 627.214 331.071 626.735 331.983C626.256 332.872 626.017 333.978 626.017 335.3C626.017 336.668 626.279 337.808 626.804 338.72C627.351 339.609 628.08 340.282 628.992 340.738C629.927 341.194 630.998 341.422 632.206 341.422C633.141 341.422 633.996 341.297 634.771 341.046C635.546 340.772 636.31 340.408 637.062 339.951L638.259 342.106C637.415 342.676 636.446 343.155 635.352 343.543C634.258 343.907 633.061 344.09 631.762 344.09ZM643.99 343.679V326.955H646.759L647.033 329.657H647.17C648.014 328.79 648.925 328.061 649.905 327.468C650.886 326.852 652.025 326.545 653.325 326.545C655.263 326.545 656.688 327.138 657.599 328.323C658.534 329.486 659.001 331.15 659.001 333.316V343.679H655.616V333.761C655.616 332.302 655.342 331.23 654.795 330.546C654.271 329.84 653.382 329.486 652.128 329.486C651.239 329.486 650.442 329.714 649.734 330.17C649.028 330.603 648.241 331.264 647.375 332.154V343.679H643.99ZM673.281 344.09C671.548 344.09 669.987 343.748 668.597 343.064C667.206 342.38 666.101 341.388 665.28 340.088C664.482 338.766 664.083 337.181 664.083 335.334C664.083 333.487 664.516 331.914 665.382 330.615C666.248 329.292 667.388 328.289 668.802 327.605C670.238 326.898 671.799 326.545 673.487 326.545C674.854 326.545 676.051 326.784 677.077 327.263C678.103 327.719 678.958 328.277 679.642 328.939L678 331.093C677.316 330.546 676.621 330.124 675.914 329.828C675.23 329.508 674.478 329.349 673.658 329.349C672.472 329.349 671.412 329.6 670.477 330.101C669.565 330.603 668.847 331.31 668.323 332.222C667.821 333.111 667.571 334.149 667.571 335.334C667.571 336.543 667.821 337.592 668.323 338.481C668.825 339.37 669.52 340.066 670.409 340.567C671.321 341.068 672.369 341.319 673.555 341.319C674.558 341.319 675.47 341.126 676.291 340.738C677.111 340.35 677.852 339.883 678.513 339.336L679.984 341.525C679.049 342.346 678 342.984 676.838 343.44C675.698 343.873 674.512 344.09 673.281 344.09ZM684.996 343.679V319.431H688.382V325.861L688.177 329.623H688.279C689.077 328.779 689.966 328.061 690.946 327.468C691.927 326.852 693.055 326.545 694.332 326.545C696.292 326.545 697.728 327.138 698.64 328.323C699.552 329.486 700.008 331.15 700.008 333.316V343.679H696.623V333.761C696.623 332.302 696.349 331.23 695.802 330.546C695.278 329.84 694.389 329.486 693.135 329.486C692.246 329.486 691.448 329.714 690.741 330.17C690.035 330.603 689.248 331.264 688.382 332.154V343.679H684.996ZM704.269 343.679V326.955H706.936L707.21 329.144H707.278C707.689 328.391 708.178 327.776 708.749 327.297C709.318 326.796 710.082 326.545 711.04 326.545C711.837 326.545 712.498 326.784 713.023 327.263C713.547 327.742 713.912 328.46 714.117 329.417C714.573 328.551 715.086 327.856 715.656 327.331C716.248 326.807 717.024 326.545 717.981 326.545C719.166 326.545 720.078 327.001 720.717 327.913C721.377 328.824 721.708 330.113 721.708 331.777V343.679H718.392V332.017C718.392 330.307 717.879 329.452 716.853 329.452C716.351 329.452 715.93 329.645 715.588 330.033C715.246 330.421 714.869 331.002 714.459 331.777V343.679H711.518V332.017C711.518 331.173 711.393 330.534 711.142 330.101C710.914 329.669 710.538 329.452 710.014 329.452C709.512 329.452 709.067 329.645 708.68 330.033C708.315 330.421 707.951 331.002 707.586 331.777V343.679H704.269ZM731.235 344.09C730.164 344.09 729.195 343.896 728.328 343.508C727.485 343.098 726.813 342.539 726.311 341.833C725.832 341.103 725.593 340.248 725.593 339.267C725.593 337.398 726.505 335.972 728.328 334.992C730.175 334.012 733.196 333.362 737.39 333.043C737.367 332.359 737.208 331.732 736.911 331.162C736.638 330.592 736.193 330.147 735.578 329.828C734.985 329.486 734.199 329.315 733.218 329.315C732.534 329.315 731.862 329.406 731.201 329.588C730.54 329.748 729.901 329.976 729.286 330.273C728.67 330.569 728.089 330.877 727.542 331.196L726.277 328.904C726.892 328.54 727.599 328.175 728.397 327.81C729.195 327.422 730.05 327.114 730.961 326.887C731.896 326.659 732.842 326.545 733.8 326.545C735.35 326.545 736.638 326.83 737.664 327.4C738.689 327.969 739.465 328.779 739.989 329.828C740.513 330.877 740.775 332.142 740.775 333.624V343.679H738.006L737.732 341.525H737.629C736.74 342.209 735.738 342.813 734.62 343.337C733.503 343.839 732.375 344.09 731.235 344.09ZM732.192 341.388C733.081 341.388 733.96 341.194 734.825 340.806C735.692 340.419 736.547 339.871 737.39 339.165V335.197C735.202 335.357 733.481 335.608 732.227 335.95C730.996 336.292 730.13 336.725 729.628 337.25C729.127 337.751 728.876 338.344 728.876 339.028C728.876 339.575 729.024 340.031 729.32 340.396C729.639 340.738 730.05 340.989 730.551 341.148C731.053 341.308 731.6 341.388 732.192 341.388ZM748.217 343.679V326.955H751.021L751.294 330.854H751.397C752.263 329.486 753.323 328.426 754.577 327.673C755.83 326.921 757.198 326.545 758.68 326.545C759.318 326.545 759.9 326.601 760.424 326.716C760.948 326.83 761.461 327.001 761.963 327.229L761.211 330.136C760.64 329.931 760.151 329.794 759.74 329.725C759.33 329.634 758.805 329.588 758.167 329.588C756.959 329.588 755.796 329.93 754.679 330.615C753.562 331.299 752.536 332.484 751.602 334.171V343.679H748.217ZM767.352 343.679V319.431H770.737V335.232H770.874L779.115 326.955H782.91L770.737 339.233V343.679H767.352ZM780.004 343.679L773.883 335.129L775.901 332.974L783.731 343.679H780.004ZM786.556 348.673V345.902H802.97V348.673H786.556ZM818.788 344.09C816.942 344.09 815.528 343.554 814.548 342.482C813.568 341.388 813.078 339.837 813.078 337.831V322.167H807.504V319.431H816.463V338.036C816.463 339.199 816.759 340.042 817.352 340.567C817.945 341.068 818.685 341.319 819.575 341.319C820.031 341.319 820.498 341.263 820.976 341.148C821.478 341.034 822.025 340.852 822.618 340.601L823.438 343.132C822.64 343.406 821.9 343.634 821.216 343.816C820.554 343.999 819.746 344.09 818.788 344.09ZM835.772 344.09C834.309 344.09 832.942 343.748 831.666 343.064C830.412 342.38 829.386 341.388 828.589 340.088C827.813 338.766 827.426 337.181 827.426 335.334C827.426 333.487 827.813 331.914 828.589 330.615C829.386 329.292 830.412 328.289 831.666 327.605C832.942 326.898 834.309 326.545 835.772 326.545C837.229 326.545 838.583 326.898 839.842 327.605C841.114 328.289 842.139 329.292 842.919 330.615C843.712 331.914 844.116 333.487 844.116 335.334C844.116 337.181 843.712 338.766 842.919 340.088C842.139 341.388 841.114 342.38 839.842 343.064C838.583 343.748 837.229 344.09 835.772 344.09ZM835.772 341.319C836.75 341.319 837.605 341.068 838.337 340.567C839.062 340.066 839.623 339.37 840.013 338.481C840.423 337.592 840.628 336.543 840.628 335.334C840.628 334.149 840.423 333.111 840.013 332.222C839.623 331.31 839.062 330.603 838.337 330.101C837.605 329.6 836.75 329.349 835.772 329.349C834.788 329.349 833.933 329.6 833.205 330.101C832.475 330.603 831.906 331.31 831.495 332.222C831.108 333.111 830.914 334.149 830.914 335.334C830.914 336.543 831.108 337.592 831.495 338.481C831.906 339.37 832.475 340.066 833.205 340.567C833.933 341.068 834.788 341.319 835.772 341.319ZM855.968 351.238C854.395 351.238 853.027 351.055 851.864 350.691C850.722 350.349 849.847 349.836 849.231 349.152C848.616 348.49 848.308 347.669 848.308 346.689C848.308 346.005 848.534 345.344 848.992 344.705C849.443 344.09 850.12 343.543 851.01 343.064V342.927C850.572 342.653 850.175 342.3 849.813 341.867C849.471 341.434 849.3 340.863 849.3 340.157C849.3 339.609 849.471 339.062 849.813 338.515C850.175 337.945 850.668 337.443 851.283 337.01V336.873C850.709 336.44 850.223 335.859 849.813 335.129C849.402 334.399 849.197 333.544 849.197 332.564C849.197 331.31 849.505 330.238 850.12 329.349C850.756 328.46 851.577 327.776 852.583 327.297C853.608 326.796 854.723 326.545 855.934 326.545C856.891 326.545 857.732 326.681 858.464 326.955H865.337V329.623H861.268C861.61 329.987 861.89 330.444 862.123 330.991C862.369 331.515 862.499 332.074 862.499 332.667C862.499 333.898 862.198 334.936 861.61 335.779C861.035 336.622 860.249 337.272 859.25 337.728C858.266 338.161 857.165 338.378 855.934 338.378C855.523 338.378 855.079 338.332 854.6 338.241C854.142 338.15 853.684 338.014 853.232 337.831C852.863 338.082 852.583 338.344 852.377 338.618C852.172 338.891 852.07 339.211 852.07 339.575C852.07 340.168 852.35 340.613 852.924 340.909C853.492 341.183 854.313 341.319 855.386 341.319H858.943C861.104 341.319 862.725 341.627 863.798 342.243C864.892 342.859 865.44 343.885 865.44 345.321C865.44 346.393 865.05 347.373 864.277 348.262C863.497 349.174 862.403 349.892 860.994 350.417C859.579 350.964 857.903 351.238 855.968 351.238ZM855.934 336.189C856.57 336.189 857.151 336.053 857.677 335.779C858.197 335.483 858.621 335.061 858.943 334.513C859.257 333.966 859.421 333.316 859.421 332.564C859.421 331.834 859.257 331.208 858.943 330.683C858.621 330.136 858.197 329.714 857.677 329.417C857.151 329.098 856.57 328.939 855.934 328.939C855.291 328.939 854.703 329.098 854.155 329.417C853.629 329.714 853.205 330.136 852.89 330.683C852.569 331.208 852.412 331.834 852.412 332.564C852.412 333.316 852.569 333.966 852.89 334.513C853.205 335.061 853.629 335.483 854.155 335.779C854.703 336.053 855.291 336.189 855.934 336.189ZM856.31 348.878C857.513 348.878 858.553 348.73 859.421 348.433C860.283 348.16 860.946 347.795 861.405 347.339C861.883 346.906 862.123 346.427 862.123 345.902C862.123 345.15 861.822 344.649 861.234 344.398C860.639 344.17 859.75 344.056 858.567 344.056H855.592C855.065 344.056 854.6 344.033 854.19 343.987C853.779 343.941 853.403 343.873 853.061 343.782C852.35 344.17 851.851 344.569 851.557 344.979C851.283 345.412 851.146 345.846 851.146 346.279C851.146 347.077 851.591 347.703 852.48 348.16C853.369 348.639 854.641 348.878 856.31 348.878ZM876.984 344.09C875.411 344.09 873.906 343.828 872.47 343.303C871.034 342.779 869.81 342.175 868.811 341.49L870.316 339.302C871.294 339.986 872.354 340.521 873.496 340.909C874.658 341.297 875.965 341.49 877.428 341.49C878.7 341.49 879.651 341.263 880.266 340.806C880.902 340.35 881.224 339.815 881.224 339.199C881.224 338.903 881.155 338.629 881.019 338.378C880.902 338.127 880.677 337.899 880.335 337.694C880.013 337.466 879.521 337.25 878.864 337.044C878.222 336.839 877.38 336.622 876.334 336.395C874.118 335.938 872.477 335.312 871.41 334.513C870.357 333.715 869.837 332.689 869.837 331.435C869.837 330.021 870.439 328.859 871.649 327.947C872.88 327.012 874.658 326.545 876.984 326.545C878.304 326.545 879.555 326.772 880.745 327.229C881.949 327.662 882.975 328.164 883.823 328.733L882.25 330.854C881.45 330.329 880.574 329.919 879.617 329.623C878.68 329.303 877.702 329.144 876.676 329.144C875.828 329.144 875.158 329.246 874.658 329.452C874.152 329.634 873.79 329.885 873.564 330.204C873.332 330.524 873.222 330.877 873.222 331.264C873.222 331.903 873.571 332.405 874.282 332.769C875.007 333.111 876.184 333.453 877.804 333.795C879.624 334.183 881.025 334.616 882.01 335.095C883.009 335.574 883.693 336.133 884.062 336.771C884.445 337.386 884.643 338.127 884.643 338.994C884.643 339.929 884.342 340.784 883.754 341.559C883.159 342.334 882.291 342.95 881.155 343.406C880.034 343.862 878.646 344.09 876.984 344.09ZM510.896 387.183C509.209 387.183 507.875 386.887 506.895 386.294C505.937 385.701 505.254 384.88 504.843 383.832C504.433 382.783 504.228 381.563 504.228 380.172V372.785H499.646V370.254L504.365 370.048L504.809 364.782H507.613V370.048H515.512V372.785H507.613V380.172C507.613 381.107 507.738 381.905 507.989 382.566C508.24 383.204 508.661 383.683 509.254 384.003C509.847 384.299 510.645 384.447 511.648 384.447C512.4 384.447 513.084 384.39 513.7 384.276C514.315 384.139 514.908 383.968 515.478 383.763L516.162 386.226C515.409 386.477 514.6 386.693 513.734 386.875C512.891 387.081 511.944 387.183 510.896 387.183ZM528.425 386.773V372.785H520.936V370.048H531.81V386.773H528.425ZM529.826 366.799C529.097 366.799 528.493 366.583 528.014 366.15C527.535 365.693 527.296 365.101 527.296 364.371C527.296 363.641 527.535 363.06 528.014 362.627C528.493 362.171 529.097 361.943 529.826 361.943C530.556 361.943 531.16 362.171 531.639 362.627C532.118 363.06 532.357 363.641 532.357 364.371C532.357 365.101 532.118 365.693 531.639 366.15C531.16 366.583 530.556 366.799 529.826 366.799ZM540.242 386.773V370.048H542.909L543.183 372.237H543.251C543.662 371.485 544.152 370.869 544.722 370.39C545.291 369.889 546.055 369.638 547.013 369.638C547.811 369.638 548.471 369.877 548.996 370.356C549.521 370.835 549.885 371.553 550.09 372.511C550.546 371.644 551.059 370.949 551.629 370.425C552.222 369.9 552.997 369.638 553.954 369.638C555.139 369.638 556.052 370.094 556.69 371.006C557.351 371.918 557.681 373.207 557.681 374.871V386.773H554.364V375.11C554.364 373.4 553.852 372.545 552.826 372.545C552.324 372.545 551.902 372.739 551.561 373.127C551.219 373.514 550.842 374.096 550.432 374.871V386.773H547.491V375.11C547.491 374.267 547.366 373.628 547.115 373.195C546.888 372.762 546.511 372.545 545.987 372.545C545.486 372.545 545.041 372.739 544.653 373.127C544.289 373.514 543.924 374.096 543.559 374.871V386.773H540.242ZM570.251 387.183C568.565 387.183 567.026 386.841 565.635 386.157C564.267 385.473 563.185 384.47 562.387 383.148C561.589 381.825 561.19 380.24 561.19 378.394C561.19 376.569 561.589 375.008 562.387 373.708C563.207 372.408 564.267 371.405 565.567 370.698C566.866 369.992 568.257 369.638 569.738 369.638C571.38 369.638 572.771 369.98 573.91 370.664C575.05 371.326 575.917 372.249 576.509 373.434C577.124 374.597 577.432 375.965 577.432 377.539C577.432 377.881 577.421 378.223 577.398 378.565C577.375 378.884 577.341 379.158 577.295 379.385H563.549V376.889H575.175L574.423 377.71C574.423 375.909 574.013 374.563 573.192 373.674C572.371 372.762 571.255 372.306 569.841 372.306C568.861 372.306 567.96 372.545 567.14 373.024C566.342 373.48 565.703 374.164 565.225 375.076C564.746 375.965 564.507 377.071 564.507 378.394C564.507 379.762 564.769 380.902 565.293 381.814C565.84 382.703 566.57 383.375 567.481 383.832C568.416 384.288 569.488 384.516 570.696 384.516C571.631 384.516 572.486 384.39 573.26 384.139C574.036 383.866 574.799 383.501 575.551 383.045L576.748 385.2C575.905 385.769 574.936 386.248 573.842 386.636C572.747 387.001 571.551 387.183 570.251 387.183ZM589.934 387.183C588.361 387.183 586.857 386.921 585.421 386.397C583.984 385.872 582.765 385.268 581.762 384.584L583.266 382.395C584.246 383.079 585.306 383.615 586.446 384.003C587.609 384.39 588.92 384.584 590.379 384.584C591.656 384.584 592.601 384.356 593.217 383.9C593.855 383.444 594.174 382.908 594.174 382.293C594.174 381.996 594.106 381.723 593.969 381.472C593.855 381.221 593.627 380.993 593.285 380.788C592.966 380.56 592.476 380.343 591.815 380.138C591.177 379.933 590.333 379.716 589.285 379.488C587.074 379.032 585.432 378.405 584.361 377.607C583.312 376.809 582.788 375.783 582.788 374.529C582.788 373.115 583.392 371.952 584.6 371.04C585.831 370.105 587.609 369.638 589.934 369.638C591.256 369.638 592.511 369.866 593.696 370.322C594.904 370.755 595.93 371.257 596.773 371.827L595.2 373.947C594.402 373.423 593.525 373.012 592.567 372.716C591.632 372.397 590.652 372.237 589.627 372.237C588.783 372.237 588.11 372.34 587.609 372.545C587.108 372.728 586.743 372.978 586.515 373.298C586.287 373.617 586.173 373.97 586.173 374.358C586.173 374.996 586.526 375.498 587.233 375.863C587.963 376.205 589.136 376.547 590.755 376.889C592.579 377.277 593.981 377.71 594.961 378.188C595.964 378.667 596.648 379.226 597.013 379.864C597.4 380.48 597.594 381.221 597.594 382.087C597.594 383.022 597.298 383.877 596.705 384.652C596.112 385.427 595.246 386.043 594.106 386.499C592.989 386.956 591.598 387.183 589.934 387.183ZM613.412 387.183C611.726 387.183 610.392 386.887 609.411 386.294C608.454 385.701 607.77 384.88 607.36 383.832C606.949 382.783 606.744 381.563 606.744 380.172V372.785H602.162V370.254L606.881 370.048L607.326 364.782H610.13V370.048H618.029V372.785H610.13V380.172C610.13 381.107 610.255 381.905 610.506 382.566C610.757 383.204 611.179 383.683 611.771 384.003C612.364 384.299 613.162 384.447 614.165 384.447C614.917 384.447 615.601 384.39 616.216 384.276C616.832 384.139 617.425 383.968 617.994 383.763L618.678 386.226C617.926 386.477 617.117 386.693 616.25 386.875C615.407 387.081 614.461 387.183 613.412 387.183ZM628.718 387.183C627.647 387.183 626.678 386.99 625.812 386.602C624.969 386.191 624.296 385.633 623.794 384.926C623.316 384.196 623.076 383.341 623.076 382.361C623.076 380.491 623.988 379.066 625.812 378.086C627.658 377.106 630.679 376.456 634.873 376.136C634.851 375.452 634.691 374.825 634.395 374.255C634.121 373.685 633.677 373.241 633.061 372.921C632.468 372.579 631.682 372.408 630.702 372.408C630.018 372.408 629.346 372.499 628.684 372.682C628.023 372.841 627.385 373.07 626.769 373.366C626.154 373.662 625.573 373.97 625.025 374.289L623.76 371.998C624.376 371.633 625.082 371.268 625.88 370.904C626.678 370.516 627.533 370.208 628.445 369.98C629.38 369.752 630.326 369.638 631.283 369.638C632.833 369.638 634.121 369.923 635.147 370.493C636.173 371.063 636.948 371.873 637.472 372.921C637.997 373.97 638.259 375.235 638.259 376.718V386.773H635.489L635.215 384.618H635.113C634.224 385.302 633.22 385.906 632.104 386.431C630.987 386.932 629.858 387.183 628.718 387.183ZM629.676 384.481C630.565 384.481 631.442 384.288 632.309 383.9C633.175 383.512 634.03 382.965 634.873 382.258V378.291C632.685 378.45 630.964 378.701 629.71 379.043C628.479 379.385 627.613 379.818 627.111 380.343C626.61 380.844 626.359 381.437 626.359 382.122C626.359 382.669 626.507 383.125 626.804 383.49C627.123 383.832 627.533 384.083 628.035 384.242C628.536 384.401 629.083 384.481 629.676 384.481ZM642.759 386.773V370.048H645.426L645.699 372.237H645.768C646.178 371.485 646.669 370.869 647.238 370.39C647.809 369.889 648.572 369.638 649.529 369.638C650.327 369.638 650.989 369.877 651.513 370.356C652.037 370.835 652.402 371.553 652.607 372.511C653.063 371.644 653.576 370.949 654.145 370.425C654.738 369.9 655.513 369.638 656.471 369.638C657.657 369.638 658.568 370.094 659.206 371.006C659.868 371.918 660.198 373.207 660.198 374.871V386.773H656.881V375.11C656.881 373.4 656.368 372.545 655.342 372.545C654.841 372.545 654.419 372.739 654.077 373.127C653.735 373.514 653.359 374.096 652.949 374.871V386.773H650.008V375.11C650.008 374.267 649.883 373.628 649.632 373.195C649.404 372.762 649.028 372.545 648.503 372.545C648.002 372.545 647.558 372.739 647.17 373.127C646.805 373.514 646.441 374.096 646.076 374.871V386.773H642.759ZM664.493 393.613V370.048H667.263L667.537 372.101H667.639C668.392 371.394 669.257 370.813 670.238 370.356C671.218 369.877 672.21 369.638 673.213 369.638C674.694 369.638 675.937 369.992 676.94 370.698C677.966 371.405 678.741 372.397 679.265 373.674C679.813 374.951 680.086 376.444 680.086 378.154C680.086 380.069 679.733 381.699 679.026 383.045C678.319 384.39 677.396 385.416 676.256 386.123C675.116 386.83 673.885 387.183 672.563 387.183C671.811 387.183 671.001 387.001 670.136 386.636C669.292 386.271 668.517 385.769 667.81 385.131H667.708L667.879 388.141V393.613H664.493ZM671.914 384.379C672.803 384.379 673.6 384.139 674.307 383.661C675.014 383.182 675.572 382.486 675.983 381.574C676.393 380.639 676.598 379.511 676.598 378.188C676.598 377.026 676.438 376.022 676.12 375.179C675.823 374.312 675.367 373.651 674.752 373.195C674.136 372.716 673.316 372.477 672.29 372.477C671.606 372.477 670.888 372.659 670.136 373.024C669.383 373.366 668.631 373.936 667.879 374.734V382.635C668.585 383.25 669.303 383.695 670.033 383.968C670.762 384.242 671.389 384.379 671.914 384.379ZM487.213 418.341C486.346 418.341 485.616 418.044 485.024 417.451C484.431 416.858 484.135 416.095 484.135 415.16C484.135 414.225 484.431 413.461 485.024 412.868C485.616 412.275 486.346 411.979 487.213 411.979C488.102 411.979 488.831 412.275 489.401 412.868C489.993 413.461 490.29 414.225 490.29 415.16C490.29 416.095 489.993 416.858 489.401 417.451C488.831 418.044 488.102 418.341 487.213 418.341ZM484.477 437.185L483.554 435.099C485.035 434.484 486.129 433.709 486.836 432.773C487.565 431.838 487.919 430.71 487.896 429.388L487.349 426.002L489.333 428.909C489.036 429.205 488.717 429.41 488.375 429.524C488.033 429.639 487.691 429.695 487.349 429.695C486.802 429.695 486.3 429.593 485.845 429.388C485.411 429.16 485.058 428.84 484.785 428.43C484.534 427.997 484.409 427.484 484.409 426.891C484.409 425.979 484.705 425.283 485.298 424.805C485.89 424.303 486.597 424.052 487.418 424.052C488.512 424.052 489.344 424.474 489.914 425.318C490.484 426.161 490.769 427.324 490.769 428.806C490.769 430.858 490.21 432.591 489.093 434.005C487.999 435.419 486.46 436.479 484.477 437.185Z" fill="#EAE6D8"/>
<path d="M323.185 387.183C321.476 387.183 319.96 386.727 318.638 385.815C317.338 384.88 316.312 383.546 315.56 381.814C314.83 380.058 314.466 377.949 314.466 375.486C314.466 373.047 314.83 370.972 315.56 369.262C316.312 367.529 317.338 366.218 318.638 365.329C319.96 364.417 321.476 363.961 323.185 363.961C324.895 363.961 326.4 364.417 327.699 365.329C329.021 366.218 330.047 367.529 330.777 369.262C331.529 370.972 331.905 373.047 331.905 375.486C331.905 377.949 331.529 380.058 330.777 381.814C330.047 383.546 329.021 384.88 327.699 385.815C326.4 386.727 324.895 387.183 323.185 387.183ZM323.185 384.208C324.234 384.208 325.146 383.866 325.921 383.182C326.696 382.475 327.3 381.472 327.733 380.172C328.166 378.872 328.383 377.311 328.383 375.486C328.383 373.662 328.166 372.123 327.733 370.869C327.3 369.592 326.696 368.624 325.921 367.962C325.146 367.278 324.234 366.936 323.185 366.936C322.137 366.936 321.225 367.278 320.45 367.962C319.675 368.624 319.07 369.592 318.638 370.869C318.205 372.123 317.988 373.662 317.988 375.486C317.988 377.311 318.205 378.872 318.638 380.172C319.07 381.472 319.675 382.475 320.45 383.182C321.225 383.866 322.137 384.208 323.185 384.208ZM336.576 386.773V364.371H343.791C345.341 364.371 346.721 364.576 347.929 364.987C349.137 365.375 350.083 366.047 350.767 367.005C351.474 367.962 351.827 369.239 351.827 370.835C351.827 372.386 351.474 373.662 350.767 374.666C350.083 375.669 349.137 376.422 347.929 376.923C346.721 377.424 345.341 377.675 343.791 377.675H339.995V386.773H336.576ZM339.995 374.905H343.381C345.022 374.905 346.276 374.575 347.142 373.913C348.009 373.229 348.441 372.203 348.441 370.835C348.441 369.467 348.009 368.509 347.142 367.962C346.276 367.392 345.022 367.107 343.381 367.107H339.995V374.905ZM343.141 376.752L345.706 374.802L352.613 386.773H348.749L343.141 376.752ZM356.772 386.773V364.371H362.448C364.682 364.371 366.574 364.793 368.125 365.636C369.698 366.48 370.894 367.734 371.715 369.399C372.536 371.04 372.946 373.07 372.946 375.486C372.946 377.903 372.536 379.955 371.715 381.643C370.894 383.33 369.72 384.607 368.193 385.473C366.665 386.34 364.808 386.773 362.619 386.773H356.772ZM360.191 384.003H362.243C363.816 384.003 365.126 383.683 366.175 383.045C367.246 382.383 368.056 381.426 368.603 380.172C369.15 378.918 369.424 377.356 369.424 375.486C369.424 373.617 369.15 372.066 368.603 370.835C368.056 369.604 367.246 368.68 366.175 368.065C365.126 367.449 363.816 367.141 362.243 367.141H360.191V384.003ZM378.164 386.773V364.371H392.252V367.244H381.584V373.64H390.611V376.512H381.584V383.9H392.594V386.773H378.164ZM398.086 386.773V364.371H405.302C406.851 364.371 408.231 364.576 409.439 364.987C410.647 365.375 411.593 366.047 412.277 367.005C412.984 367.962 413.337 369.239 413.337 370.835C413.337 372.386 412.984 373.662 412.277 374.666C411.593 375.669 410.647 376.422 409.439 376.923C408.231 377.424 406.851 377.675 405.302 377.675H401.506V386.773H398.086ZM401.506 374.905H404.891C406.533 374.905 407.786 374.575 408.653 373.913C409.518 373.229 409.952 372.203 409.952 370.835C409.952 369.467 409.518 368.509 408.653 367.962C407.786 367.392 406.533 367.107 404.891 367.107H401.506V374.905ZM404.652 376.752L407.216 374.802L414.124 386.773H410.26L404.652 376.752ZM439.093 386.773V364.371H445.761C447.288 364.371 448.634 364.554 449.796 364.918C450.981 365.26 451.905 365.83 452.566 366.628C453.25 367.427 453.592 368.498 453.592 369.843C453.592 370.938 453.272 371.941 452.634 372.853C451.996 373.765 451.016 374.392 449.694 374.734V374.871C451.312 375.122 452.566 375.692 453.455 376.581C454.344 377.47 454.789 378.679 454.789 380.206C454.789 381.688 454.423 382.92 453.694 383.9C452.987 384.858 451.996 385.576 450.719 386.055C449.443 386.533 447.972 386.773 446.308 386.773H439.093ZM442.513 373.674H445.351C447.083 373.674 448.326 373.389 449.078 372.819C449.853 372.226 450.241 371.36 450.241 370.219C450.241 369.102 449.841 368.316 449.044 367.86C448.246 367.403 447.049 367.176 445.453 367.176H442.513V373.674ZM442.513 383.968H445.898C447.676 383.968 449.044 383.661 450.001 383.045C450.959 382.407 451.437 381.392 451.437 380.001C451.437 378.724 450.959 377.812 450.001 377.265C449.066 376.695 447.699 376.41 445.898 376.41H442.513V383.968ZM464.999 386.773V378.907L457.545 364.371H461.169L464.281 370.698C464.691 371.542 465.09 372.397 465.478 373.263C465.866 374.107 466.276 374.985 466.709 375.897H466.846C467.278 374.985 467.7 374.107 468.111 373.263C468.521 372.397 468.931 371.531 469.342 370.664L472.317 364.371H475.873L468.418 378.907V386.773H464.999ZM317.27 429.866V407.465H320.655V426.993H331.426V429.866H317.27ZM336.508 429.866V426.993H341.979V410.337H336.508V407.465H350.869V410.337H345.398V426.993H350.869V429.866H336.508ZM356.259 429.866V407.465H360.226L363.132 416.596L364.124 420.085H364.261L365.252 416.596L368.159 407.465H372.125V429.866H368.979V419.777C368.979 419.207 369.002 418.546 369.048 417.793C369.093 417.018 369.139 416.22 369.185 415.399C369.253 414.578 369.31 413.803 369.356 413.074C369.424 412.344 369.481 411.717 369.527 411.192H369.424L368.022 416.015L365.184 423.915H363.064L360.26 416.015L358.892 411.192H358.789C358.858 411.717 358.915 412.344 358.96 413.074C359.029 413.803 359.086 414.578 359.131 415.399C359.177 416.22 359.222 417.018 359.268 417.793C359.313 418.546 359.337 419.207 359.337 419.777V429.866H356.259ZM377.514 429.866V426.993H382.986V410.337H377.514V407.465H391.876V410.337H386.405V426.993H391.876V429.866H377.514ZM403.489 429.866V410.337H396.274V407.465H414.124V410.337H406.909V429.866H403.489Z" fill="#D1CD74"/>
<path d="M439.127 429.866V427.096H445.282V411.911H440.427V409.79C441.316 409.653 442.091 409.505 442.752 409.346C443.436 409.186 444.051 409.004 444.599 408.798C445.168 408.593 445.693 408.354 446.172 408.08H448.668V427.096H454.173V429.866H439.127ZM466.709 430.277C465.09 430.277 463.677 429.832 462.469 428.943C461.283 428.054 460.36 426.766 459.699 425.078C459.061 423.368 458.741 421.304 458.741 418.888C458.741 415.217 459.46 412.435 460.896 410.543C462.332 408.627 464.269 407.67 466.709 407.67C469.171 407.67 471.108 408.627 472.522 410.543C473.958 412.435 474.676 415.217 474.676 418.888C474.676 421.304 474.346 423.368 473.684 425.078C473.046 426.766 472.134 428.054 470.949 428.943C469.764 429.832 468.35 430.277 466.709 430.277ZM466.709 427.575C467.644 427.575 468.475 427.279 469.205 426.686C469.935 426.093 470.504 425.158 470.915 423.881C471.348 422.582 471.564 420.917 471.564 418.888C471.564 416.858 471.348 415.217 470.915 413.963C470.504 412.686 469.935 411.762 469.205 411.193C468.475 410.623 467.644 410.338 466.709 410.338C465.774 410.338 464.942 410.623 464.213 411.193C463.483 411.762 462.902 412.686 462.469 413.963C462.058 415.217 461.853 416.858 461.853 418.888C461.853 420.917 462.058 422.582 462.469 423.881C462.902 425.158 463.483 426.093 464.213 426.686C464.942 427.279 465.774 427.575 466.709 427.575ZM466.709 421.077C466.116 421.077 465.592 420.871 465.136 420.461C464.68 420.028 464.452 419.447 464.452 418.717C464.452 417.964 464.68 417.383 465.136 416.973C465.592 416.562 466.116 416.357 466.709 416.357C467.324 416.357 467.849 416.562 468.282 416.973C468.738 417.383 468.966 417.964 468.966 418.717C468.966 419.447 468.738 420.028 468.282 420.461C467.849 420.871 467.324 421.077 466.709 421.077Z" fill="#EC6D3C"/>
<path d="M568.227 161.592V149.319H572.202C573.709 149.319 574.691 149.38 575.149 149.503C575.852 149.687 576.441 150.089 576.915 150.708C577.389 151.322 577.626 152.118 577.626 153.094C577.626 153.848 577.49 154.481 577.217 154.995C576.943 155.508 576.594 155.913 576.17 156.209C575.752 156.499 575.325 156.691 574.89 156.786C574.298 156.903 573.442 156.962 572.32 156.962H570.705V161.592H568.227ZM570.705 151.395V154.877H572.06C573.037 154.877 573.69 154.813 574.019 154.685C574.349 154.557 574.605 154.356 574.789 154.082C574.979 153.809 575.073 153.491 575.073 153.128C575.073 152.681 574.943 152.313 574.68 152.023C574.418 151.732 574.086 151.551 573.684 151.478C573.388 151.423 572.794 151.395 571.902 151.395H570.705ZM581.402 155.413L579.267 155.028C579.507 154.169 579.92 153.532 580.506 153.119C581.092 152.706 581.962 152.5 583.117 152.5C584.166 152.5 584.947 152.625 585.461 152.877C585.975 153.122 586.334 153.437 586.541 153.823C586.753 154.202 586.859 154.903 586.859 155.924L586.834 158.67C586.834 159.451 586.87 160.029 586.942 160.403C587.02 160.771 587.163 161.167 587.369 161.592H585.043C584.981 161.435 584.906 161.204 584.817 160.897C584.777 160.757 584.75 160.665 584.733 160.62C584.331 161.011 583.901 161.304 583.444 161.499C582.986 161.695 582.498 161.792 581.979 161.792C581.064 161.792 580.341 161.544 579.811 161.047C579.287 160.551 579.024 159.923 579.024 159.164C579.024 158.661 579.145 158.215 579.384 157.824C579.624 157.428 579.959 157.127 580.389 156.92C580.824 156.708 581.449 156.524 582.264 156.368C583.363 156.161 584.125 155.969 584.549 155.79V155.556C584.549 155.103 584.437 154.783 584.214 154.593C583.991 154.397 583.569 154.3 582.95 154.3C582.531 154.3 582.205 154.384 581.97 154.551C581.737 154.713 581.546 155 581.402 155.413ZM584.549 157.322C584.247 157.422 583.77 157.542 583.117 157.682C582.464 157.821 582.038 157.958 581.836 158.092C581.53 158.31 581.376 158.586 581.376 158.921C581.376 159.25 581.499 159.535 581.745 159.775C581.99 160.015 582.303 160.135 582.682 160.135C583.106 160.135 583.511 159.995 583.896 159.716C584.18 159.504 584.368 159.245 584.456 158.938C584.518 158.737 584.549 158.354 584.549 157.791V157.322ZM591.438 161.592H589.085V152.701H591.27V153.965C591.643 153.368 591.979 152.974 592.274 152.784C592.576 152.595 592.916 152.5 593.296 152.5C593.831 152.5 594.348 152.648 594.844 152.944L594.116 154.995C593.72 154.738 593.351 154.61 593.011 154.61C592.682 154.61 592.403 154.702 592.174 154.886C591.945 155.064 591.764 155.391 591.63 155.865C591.501 156.34 591.438 157.333 591.438 158.846V161.592ZM597.623 155.413L595.488 155.028C595.728 154.169 596.141 153.532 596.727 153.119C597.313 152.706 598.184 152.5 599.339 152.5C600.388 152.5 601.169 152.625 601.682 152.877C602.196 153.122 602.556 153.437 602.762 153.823C602.974 154.202 603.08 154.903 603.08 155.924L603.055 158.67C603.055 159.451 603.091 160.029 603.164 160.403C603.242 160.771 603.384 161.167 603.591 161.592H601.264C601.202 161.435 601.127 161.204 601.038 160.897C600.999 160.757 600.971 160.665 600.954 160.62C600.553 161.011 600.123 161.304 599.665 161.499C599.207 161.695 598.719 161.792 598.201 161.792C597.286 161.792 596.563 161.544 596.033 161.047C595.508 160.551 595.245 159.923 595.245 159.164C595.245 158.661 595.366 158.215 595.606 157.824C595.845 157.428 596.18 157.127 596.61 156.92C597.045 156.708 597.671 156.524 598.485 156.368C599.584 156.161 600.346 155.969 600.77 155.79V155.556C600.77 155.103 600.658 154.783 600.435 154.593C600.212 154.397 599.791 154.3 599.171 154.3C598.752 154.3 598.426 154.384 598.192 154.551C597.958 154.713 597.768 155 597.623 155.413ZM600.77 157.322C600.468 157.422 599.992 157.542 599.339 157.682C598.686 157.821 598.259 157.958 598.058 158.092C597.751 158.31 597.597 158.586 597.597 158.921C597.597 159.25 597.721 159.535 597.966 159.775C598.212 160.015 598.524 160.135 598.904 160.135C599.328 160.135 599.732 159.995 600.117 159.716C600.402 159.504 600.589 159.245 600.678 158.938C600.739 158.737 600.77 158.354 600.77 157.791V157.322ZM613.559 161.592H611.375V160.286C611.012 160.793 610.582 161.173 610.086 161.424C609.595 161.67 609.098 161.792 608.596 161.792C607.575 161.792 606.699 161.382 605.968 160.562C605.243 159.736 604.879 158.586 604.879 157.113C604.879 155.606 605.234 154.462 605.943 153.68C606.651 152.893 607.547 152.5 608.629 152.5C609.623 152.5 610.482 152.913 611.208 153.739V149.319H613.559V161.592ZM607.282 156.954C607.282 157.902 607.413 158.589 607.675 159.013C608.055 159.627 608.585 159.934 609.266 159.934C609.807 159.934 610.267 159.705 610.647 159.247C611.026 158.784 611.216 158.095 611.216 157.18C611.216 156.158 611.032 155.424 610.664 154.978C610.295 154.526 609.824 154.3 609.249 154.3C608.691 154.3 608.222 154.523 607.843 154.97C607.469 155.41 607.282 156.072 607.282 156.954ZM621.034 158.762L623.378 159.155C623.076 160.015 622.599 160.671 621.947 161.123C621.299 161.569 620.487 161.792 619.511 161.792C617.965 161.792 616.821 161.287 616.079 160.277C615.493 159.468 615.2 158.447 615.2 157.213C615.2 155.74 615.585 154.587 616.355 153.756C617.125 152.918 618.099 152.5 619.276 152.5C620.599 152.5 621.642 152.938 622.407 153.814C623.171 154.685 623.537 156.022 623.503 157.824H617.611C617.627 158.522 617.817 159.066 618.18 159.457C618.542 159.842 618.994 160.034 619.536 160.034C619.904 160.034 620.214 159.934 620.465 159.733C620.716 159.532 620.906 159.208 621.034 158.762ZM621.168 156.384C621.151 155.703 620.975 155.187 620.64 154.836C620.306 154.478 619.898 154.3 619.418 154.3C618.905 154.3 618.481 154.487 618.146 154.861C617.812 155.235 617.647 155.742 617.653 156.384H621.168ZM625.437 149.319H629.965C630.986 149.319 631.765 149.397 632.3 149.553C633.02 149.765 633.636 150.142 634.15 150.683C634.664 151.225 635.054 151.889 635.322 152.676C635.59 153.457 635.724 154.423 635.724 155.572C635.724 156.582 635.598 157.453 635.347 158.184C635.04 159.077 634.602 159.8 634.033 160.353C633.603 160.771 633.023 161.098 632.292 161.332C631.745 161.505 631.014 161.592 630.099 161.592H625.437V149.319ZM627.914 151.395V159.524H629.764C630.456 159.524 630.956 159.485 631.263 159.407C631.664 159.306 631.996 159.136 632.258 158.896C632.526 158.656 632.744 158.262 632.911 157.715C633.078 157.163 633.162 156.412 633.162 155.463C633.162 154.515 633.078 153.786 632.911 153.278C632.744 152.771 632.509 152.374 632.208 152.09C631.907 151.805 631.525 151.612 631.062 151.512C630.715 151.434 630.038 151.395 629.028 151.395H627.914ZM637.841 149.319H642.746C643.717 149.319 644.44 149.36 644.914 149.444C645.394 149.522 645.821 149.69 646.195 149.946C646.574 150.203 646.889 150.546 647.14 150.976C647.391 151.4 647.517 151.878 647.517 152.408C647.517 152.983 647.361 153.51 647.048 153.99C646.742 154.47 646.323 154.83 645.793 155.07C646.541 155.288 647.115 155.659 647.517 156.183C647.919 156.708 648.12 157.325 648.12 158.034C648.12 158.592 647.989 159.136 647.727 159.666C647.469 160.191 647.115 160.612 646.663 160.93C646.217 161.243 645.665 161.435 645.006 161.508C644.593 161.553 643.597 161.58 642.018 161.592H637.841V149.319ZM640.319 151.361V154.199H641.943C642.908 154.199 643.508 154.185 643.742 154.157C644.166 154.107 644.499 153.962 644.738 153.722C644.983 153.477 645.107 153.156 645.107 152.759C645.107 152.38 645.001 152.073 644.789 151.838C644.582 151.599 644.272 151.453 643.859 151.403C643.614 151.375 642.908 151.361 641.742 151.361H640.319ZM640.319 156.242V159.524H642.612C643.505 159.524 644.071 159.499 644.311 159.448C644.68 159.381 644.978 159.22 645.207 158.963C645.441 158.701 645.559 158.352 645.559 157.916C645.559 157.548 645.469 157.235 645.291 156.979C645.112 156.722 644.853 156.535 644.512 156.418C644.177 156.301 643.446 156.242 642.319 156.242H640.319Z" fill="#A3A5A8"/>
<path d="M189.855 165.862C195.378 165.862 199.855 161.384 199.855 155.86C199.855 150.337 195.378 145.859 189.855 145.859C184.333 145.859 179.856 150.337 179.856 155.86C179.856 161.384 184.333 165.862 189.855 165.862Z" fill="#ED6A5E"/>
<path d="M221.282 165.862C226.805 165.862 231.282 161.384 231.282 155.86C231.282 150.337 226.805 145.859 221.282 145.859C215.76 145.859 211.283 150.337 211.283 155.86C211.283 161.384 215.76 165.862 221.282 165.862Z" fill="#F4BF4F"/>
<path d="M252.709 165.862C258.232 165.862 262.709 161.384 262.709 155.86C262.709 150.337 258.232 145.859 252.709 145.859C247.187 145.859 242.71 150.337 242.71 155.86C242.71 161.384 247.187 165.862 252.709 165.862Z" fill="#61C554"/>
</g>
</g>
</g>
<defs>
<filter id="filter0_f_325_862" x="-272.38" y="-33.0359" width="879.861" height="852.883" filterUnits="userSpaceOnUse" color-interpolation-filters="sRGB">
<feFlood flood-opacity="0" result="BackgroundImageFix"/>
<feBlend mode="normal" in="SourceGraphic" in2="BackgroundImageFix" result="shape"/>
<feGaussianBlur stdDeviation="44.1621" result="effect1_foregroundBlur_325_862"/>
</filter>
<filter id="filter1_f_325_862" x="-230.118" y="-296.3" width="844.086" height="740.86" filterUnits="userSpaceOnUse" color-interpolation-filters="sRGB">
<feFlood flood-opacity="0" result="BackgroundImageFix"/>
<feBlend mode="normal" in="SourceGraphic" in2="BackgroundImageFix" result="shape"/>
<feGaussianBlur stdDeviation="44.1621" result="effect1_foregroundBlur_325_862"/>
</filter>
<filter id="filter2_f_325_862" x="-214.912" y="273.103" width="1500.82" height="498.835" filterUnits="userSpaceOnUse" color-interpolation-filters="sRGB">
<feFlood flood-opacity="0" result="BackgroundImageFix"/>
<feBlend mode="normal" in="SourceGraphic" in2="BackgroundImageFix" result="shape"/>
<feGaussianBlur stdDeviation="44.1621" result="effect1_foregroundBlur_325_862"/>
</filter>
<filter id="filter3_f_325_862" x="103.913" y="391.106" width="1120.47" height="640.282" filterUnits="userSpaceOnUse" color-interpolation-filters="sRGB">
<feFlood flood-opacity="0" result="BackgroundImageFix"/>
<feBlend mode="normal" in="SourceGraphic" in2="BackgroundImageFix" result="shape"/>
<feGaussianBlur stdDeviation="44.1621" result="effect1_foregroundBlur_325_862"/>
</filter>
<filter id="filter4_f_325_862" x="654.638" y="-204.833" width="821.686" height="652.199" filterUnits="userSpaceOnUse" color-interpolation-filters="sRGB">
<feFlood flood-opacity="0" result="BackgroundImageFix"/>
<feBlend mode="normal" in="SourceGraphic" in2="BackgroundImageFix" result="shape"/>
<feGaussianBlur stdDeviation="44.1621" result="effect1_foregroundBlur_325_862"/>
</filter>
<filter id="filter5_f_325_862" x="746.97" y="625.332" width="711.198" height="647.573" filterUnits="userSpaceOnUse" color-interpolation-filters="sRGB">
<feFlood flood-opacity="0" result="BackgroundImageFix"/>
<feBlend mode="normal" in="SourceGraphic" in2="BackgroundImageFix" result="shape"/>
<feGaussianBlur stdDeviation="44.1621" result="effect1_foregroundBlur_325_862"/>
</filter>
<filter id="filter6_d_325_862" x="146.226" y="122.226" width="907.186" height="585.183" filterUnits="userSpaceOnUse" color-interpolation-filters="sRGB">
<feFlood flood-opacity="0" result="BackgroundImageFix"/>
<feColorMatrix in="SourceAlpha" type="matrix" values="0 0 0 0 0 0 0 0 0 0 0 0 0 0 0 0 0 0 127 0" result="hardAlpha"/>
<feOffset/>
<feGaussianBlur stdDeviation="5.22196"/>
<feComposite in2="hardAlpha" operator="out"/>
<feColorMatrix type="matrix" values="0 0 0 0 0.745833 0 0 0 0 0.745833 0 0 0 0 0.745833 0 0 0 0.2 0"/>
<feBlend mode="normal" in2="BackgroundImageFix" result="effect1_dropShadow_325_862"/>
<feBlend mode="normal" in="SourceGraphic" in2="effect1_dropShadow_325_862" result="shape"/>
</filter>
<clipPath id="clip0_325_862">
<rect width="1200" height="630" fill="white"/>
</clipPath>
<clipPath id="clip1_325_862">
<rect width="1200" height="630" fill="white"/>
</clipPath>
</defs>
</svg>
