<svg width="1200" height="630" viewBox="0 0 1200 630" fill="none" xmlns="http://www.w3.org/2000/svg">
<g clip-path="url(#clip0_325_813)">
<path d="M1200 0H0V630H1200V0Z" fill="white"/>
<g filter="url(#filter0_f_325_813)">
<path d="M519.156 363.02L452.925 427.152L332.475 479.453L186.106 508.929L-184.056 731.523L2.81259 298.188L173.625 297.547L320.719 254.602L498.25 55.2883L519.156 363.02Z" fill="#FCB055"/>
</g>
<g filter="url(#filter1_f_325_813)">
<path d="M525.644 65.0475L329.831 261.193L91.0311 356.236L-138.6 200.27L-141.794 -71.6042L43.5685 -151.095L395.519 -207.976L525.644 65.0475Z" fill="#FB847C"/>
</g>
<g filter="url(#filter2_f_325_813)">
<path d="M757 379.301L1197.59 590.088L531.831 579.11L306.938 607.256L-126.587 683.614L146.188 380.952L373.475 361.427L600.531 405.796L757 379.301Z" fill="#B6B8FD"/>
</g>
<g filter="url(#filter3_f_325_813)">
<path d="M1136.06 607.571L811.694 889.029L534.156 943.063L367.569 865.159L235.006 793.036L192.237 673.003L249.206 522.684L461.794 479.43L708.137 510.726L1136.06 607.571Z" fill="#609EFF"/>
</g>
<g filter="url(#filter4_f_325_813)">
<path d="M1141.26 -116.509L1388 193.842L1178.94 359.042L792.912 235.503L742.962 113.073L837.875 -48.1717L1141.26 -116.509Z" fill="#FCB055"/>
</g>
<g filter="url(#filter5_f_325_813)">
<path d="M1369.84 974.715L1272.02 1163.77L1069.46 1184.58L900.769 1132.16L835.294 974.715L884.406 801.996L1069.46 713.656L1153.28 812.688L1369.84 974.715Z" fill="#FB847C"/>
</g>
<path opacity="0.65" d="M1200 0H0V630H1200V0Z" fill="white"/>
<g clip-path="url(#clip1_325_813)">
<g filter="url(#filter6_d_325_813)">
<path d="M1028.5 143.144H171.428C163.538 143.144 157.143 149.541 157.143 157.432V692.492C157.143 700.383 163.538 706.779 171.428 706.779H1028.5C1036.39 706.779 1042.78 700.383 1042.78 692.492V157.432C1042.78 149.541 1036.39 143.144 1028.5 143.144Z" fill="#131920"/>
<path d="M1028.5 143.858H171.428C163.933 143.858 157.857 149.935 157.857 157.432V692.491C157.857 699.988 163.933 706.065 171.428 706.065H1028.5C1035.99 706.065 1042.07 699.988 1042.07 692.491V157.432C1042.07 149.935 1035.99 143.858 1028.5 143.858Z" stroke="#131920" stroke-width="2.08879"/>
<path d="M403.114 355.643C401.359 355.643 399.704 355.316 398.149 354.665C396.595 354.013 395.241 353.122 394.087 351.993L396.269 349.435C397.221 350.313 398.3 351.028 399.503 351.58C400.707 352.106 401.986 352.37 403.34 352.37C404.894 352.37 406.098 352.043 406.951 351.391C407.804 350.74 408.23 349.912 408.23 348.908C408.23 348.106 408.042 347.467 407.666 346.99C407.289 346.513 406.775 346.112 406.123 345.786C405.496 345.46 404.769 345.134 403.942 344.808L400.481 343.265C399.654 342.939 398.826 342.513 397.999 341.986C397.197 341.434 396.532 340.745 396.005 339.917C395.479 339.064 395.215 338.036 395.215 336.832C395.215 335.553 395.566 334.412 396.269 333.409C396.971 332.38 397.949 331.577 399.202 331.001C400.456 330.399 401.898 330.098 403.528 330.098C405.058 330.098 406.487 330.386 407.816 330.963C409.145 331.515 410.286 332.255 411.239 333.183L409.283 335.591C408.481 334.888 407.603 334.349 406.65 333.973C405.722 333.571 404.619 333.371 403.34 333.371C402.061 333.371 401.02 333.66 400.218 334.236C399.416 334.813 399.014 335.603 399.014 336.606C399.014 337.333 399.215 337.923 399.616 338.375C400.042 338.826 400.582 339.202 401.234 339.503C401.911 339.804 402.6 340.105 403.302 340.406L406.65 341.873C407.678 342.275 408.594 342.764 409.396 343.341C410.223 343.893 410.875 344.582 411.352 345.41C411.828 346.237 412.066 347.253 412.066 348.457C412.066 349.786 411.703 351.003 410.976 352.106C410.273 353.185 409.245 354.05 407.891 354.702C406.562 355.329 404.97 355.643 403.114 355.643ZM418.37 355.191V330.549H433.867V333.709H422.132V340.745H432.062V343.905H422.132V352.031H434.244V355.191H418.37ZM441.602 355.191V330.549H445.325V352.031H457.174V355.191H441.602ZM463.478 355.191V330.549H478.975V333.709H467.239V340.745H477.169V343.905H467.239V352.031H479.351V355.191H463.478ZM495.172 355.643C493.642 355.643 492.213 355.367 490.884 354.815C489.58 354.238 488.427 353.411 487.424 352.332C486.446 351.229 485.668 349.887 485.092 348.307C484.54 346.726 484.264 344.933 484.264 342.927C484.264 340.243 484.753 337.948 485.731 336.042C486.709 334.111 488.038 332.644 489.718 331.64C491.398 330.612 493.317 330.098 495.473 330.098C496.978 330.098 498.319 330.411 499.498 331.038C500.676 331.64 501.642 332.343 502.394 333.145L500.288 335.515C499.66 334.838 498.946 334.311 498.144 333.935C497.366 333.559 496.476 333.371 495.473 333.371C494.018 333.371 492.74 333.759 491.636 334.537C490.533 335.29 489.668 336.368 489.041 337.773C488.439 339.177 488.138 340.858 488.138 342.814C488.138 344.77 488.439 346.463 489.041 347.893C489.668 349.322 490.533 350.426 491.636 351.203C492.765 351.981 494.069 352.37 495.548 352.37C496.627 352.37 497.592 352.144 498.445 351.692C499.297 351.216 500.087 350.576 500.814 349.774L502.921 352.069C501.968 353.197 500.852 354.075 499.573 354.702C498.294 355.329 496.827 355.643 495.172 355.643ZM513.889 355.191V333.709H505.952V330.549H525.587V333.709H517.65V355.191H513.889Z" fill="#D1CD74"/>
<path d="M556.401 351.203L554.595 349.962L558.582 343.83L552.564 341.196L553.203 339.24L559.485 341.196L559.823 334.161H561.93L562.268 341.196L568.55 339.24L569.189 341.196L563.171 343.83L567.158 349.962L565.353 351.203L560.877 345.372L556.401 351.203ZM599.439 355.191V330.549H614.861V333.709H603.201V341.347H613.093V344.544H603.201V355.191H599.439ZM620.714 355.191V330.549H628.651C630.356 330.549 631.873 330.775 633.202 331.226C634.531 331.653 635.572 332.393 636.324 333.446C637.102 334.5 637.49 335.904 637.49 337.66C637.49 339.365 637.102 340.77 636.324 341.873C635.572 342.977 634.531 343.804 633.202 344.356C631.873 344.908 630.356 345.184 628.651 345.184H624.476V355.191H620.714ZM624.476 342.137H628.2C630.005 342.137 631.384 341.773 632.337 341.046C633.29 340.293 633.766 339.165 633.766 337.66C633.766 336.155 633.29 335.101 632.337 334.5C631.384 333.872 630.005 333.559 628.2 333.559H624.476V342.137ZM627.936 344.168L630.757 342.024L638.355 355.191H634.105L627.936 344.168ZM651.092 355.643C649.211 355.643 647.543 355.141 646.089 354.138C644.66 353.11 643.532 351.643 642.704 349.736C641.901 347.805 641.501 345.485 641.501 342.776C641.501 340.093 641.901 337.81 642.704 335.929C643.532 334.023 644.66 332.581 646.089 331.603C647.543 330.599 649.211 330.098 651.092 330.098C652.973 330.098 654.628 330.599 656.057 331.603C657.511 332.581 658.64 334.023 659.442 335.929C660.27 337.81 660.684 340.093 660.684 342.776C660.684 345.485 660.27 347.805 659.442 349.736C658.64 351.643 657.511 353.11 656.057 354.138C654.628 355.141 652.973 355.643 651.092 355.643ZM651.092 352.37C652.245 352.37 653.248 351.993 654.101 351.241C654.953 350.463 655.618 349.36 656.095 347.93C656.571 346.501 656.809 344.782 656.809 342.776C656.809 340.77 656.571 339.077 656.095 337.697C655.618 336.293 654.953 335.227 654.101 334.5C653.248 333.747 652.245 333.371 651.092 333.371C649.938 333.371 648.935 333.747 648.083 334.5C647.23 335.227 646.565 336.293 646.089 337.697C645.613 339.077 645.375 340.77 645.375 342.776C645.375 344.782 645.613 346.501 646.089 347.93C646.565 349.36 647.23 350.463 648.083 351.241C648.935 351.993 649.938 352.37 651.092 352.37ZM664.919 355.191V330.549H669.282L672.479 340.594L673.57 344.432H673.721L674.811 340.594L678.009 330.549H682.372V355.191H678.911V344.093C678.911 343.466 678.937 342.739 678.987 341.911C679.037 341.058 679.087 340.18 679.137 339.277C679.212 338.375 679.275 337.522 679.325 336.719C679.4 335.917 679.463 335.227 679.513 334.65H679.4L677.858 339.955L674.736 348.645H672.404L669.32 339.955L667.815 334.65H667.702C667.778 335.227 667.841 335.917 667.89 336.719C667.966 337.522 668.029 338.375 668.079 339.277C668.128 340.18 668.179 341.058 668.229 341.911C668.279 342.739 668.304 343.466 668.304 344.093V355.191H664.919ZM719.054 355.643C717.048 355.643 715.581 355.154 714.653 354.175C713.725 353.197 713.261 351.906 713.261 350.3C713.261 349.899 713.286 349.51 713.336 349.134C713.412 348.758 713.487 348.357 713.562 347.93L715.292 339.578H710.102L710.591 337.02L716.007 336.794L717.474 331.64H720.37L719.279 336.794H728.043L727.479 339.578H718.715L716.985 347.93C716.91 348.257 716.86 348.545 716.834 348.796C716.809 349.047 716.797 349.297 716.797 349.548C716.797 350.651 717.085 351.467 717.662 351.993C718.264 352.52 719.041 352.784 719.994 352.784C720.871 352.784 721.699 352.645 722.477 352.37C723.254 352.094 723.956 351.78 724.583 351.429L725.674 353.912C724.896 354.414 723.918 354.827 722.74 355.154C721.586 355.48 720.358 355.643 719.054 355.643ZM738.034 355.643C736.154 355.643 734.649 355.041 733.521 353.837C732.392 352.633 731.828 350.877 731.828 348.57C731.828 346.915 732.078 345.36 732.58 343.905C733.107 342.425 733.834 341.121 734.762 339.992C735.689 338.864 736.756 337.973 737.959 337.321C739.163 336.669 740.466 336.343 741.871 336.343C743.15 336.343 744.253 336.594 745.181 337.095C746.134 337.572 746.848 338.224 747.325 339.052H747.476L748.228 336.794H751.011L747.325 355.191H744.504L744.73 352.483H744.579C743.651 353.435 742.61 354.201 741.457 354.777C740.329 355.354 739.187 355.643 738.034 355.643ZM739.2 352.746C740.103 352.746 741.068 352.47 742.097 351.918C743.125 351.342 744.103 350.501 745.031 349.398L746.648 341.723C746.096 340.82 745.431 340.18 744.654 339.804C743.902 339.428 743.137 339.24 742.36 339.24C741.407 339.24 740.504 339.478 739.652 339.955C738.799 340.431 738.047 341.083 737.395 341.911C736.768 342.713 736.279 343.654 735.928 344.733C735.577 345.786 735.401 346.902 735.401 348.081C735.401 349.686 735.74 350.865 736.417 351.617C737.119 352.37 738.047 352.746 739.2 352.746ZM762.882 355.643C761.728 355.643 760.663 355.392 759.685 354.89C758.732 354.389 757.98 353.749 757.428 352.972H757.315L756.601 355.191H753.742L759.083 328.518H762.544L761.152 335.365L760.136 339.39H760.249C761.127 338.537 762.13 337.823 763.258 337.246C764.412 336.644 765.553 336.343 766.681 336.343C768.637 336.343 770.167 336.97 771.27 338.224C772.373 339.478 772.925 341.271 772.925 343.604C772.925 345.285 772.674 346.852 772.173 348.307C771.672 349.761 770.957 351.041 770.029 352.144C769.101 353.247 768.035 354.113 766.832 354.74C765.628 355.342 764.312 355.643 762.882 355.643ZM762.506 352.746C763.484 352.746 764.387 352.532 765.214 352.106C766.042 351.655 766.756 351.028 767.358 350.225C767.985 349.423 768.474 348.507 768.825 347.479C769.176 346.426 769.352 345.297 769.352 344.093C769.352 342.438 769.001 341.221 768.299 340.444C767.596 339.641 766.656 339.24 765.478 339.24C764.6 339.24 763.647 339.541 762.619 340.143C761.616 340.719 760.651 341.547 759.723 342.626L758.18 350.376C758.757 351.229 759.422 351.843 760.174 352.219C760.926 352.57 761.704 352.746 762.506 352.746ZM787.355 355.643C785.9 355.643 784.684 355.217 783.706 354.364C782.753 353.486 782.277 352.207 782.277 350.526C782.277 350.2 782.289 349.874 782.314 349.548C782.364 349.197 782.439 348.821 782.54 348.419L786.189 331.302H780.283L780.885 328.518H790.176L785.925 348.645C785.875 348.896 785.825 349.16 785.775 349.435C785.749 349.686 785.737 349.962 785.737 350.263C785.737 351.116 785.975 351.755 786.452 352.182C786.928 352.583 787.567 352.784 788.37 352.784C788.947 352.784 789.499 352.696 790.025 352.52C790.576 352.344 791.166 352.106 791.793 351.805L792.62 354.439C791.768 354.84 790.915 355.141 790.063 355.342C789.21 355.542 788.307 355.643 787.355 355.643ZM807.801 355.643C806.222 355.643 804.83 355.342 803.626 354.74C802.448 354.138 801.532 353.247 800.881 352.069C800.229 350.865 799.903 349.385 799.903 347.629C799.903 345.974 800.178 344.469 800.73 343.115C801.307 341.735 802.084 340.544 803.062 339.541C804.04 338.513 805.156 337.723 806.41 337.171C807.689 336.619 809.03 336.343 810.435 336.343C812.691 336.343 814.434 337.02 815.663 338.375C816.916 339.704 817.544 341.397 817.544 343.453C817.544 344.131 817.481 344.808 817.355 345.485C817.23 346.162 817.117 346.639 817.017 346.915H802.536L802.949 344.356H815.362L814.083 344.996C814.158 344.72 814.208 344.444 814.234 344.168C814.283 343.893 814.309 343.616 814.309 343.341C814.309 342.011 813.945 340.97 813.218 340.218C812.491 339.466 811.513 339.089 810.284 339.089C809.457 339.089 808.629 339.29 807.801 339.691C806.999 340.067 806.259 340.62 805.582 341.347C804.931 342.074 804.391 342.952 803.965 343.98C803.539 345.008 803.325 346.174 803.325 347.479C803.325 348.683 803.539 349.686 803.965 350.489C804.416 351.291 805.03 351.906 805.808 352.332C806.61 352.734 807.526 352.934 808.554 352.934C809.708 352.934 810.785 352.721 811.789 352.294C812.816 351.843 813.757 351.291 814.61 350.639L815.851 352.972C814.898 353.724 813.719 354.364 812.315 354.89C810.936 355.392 809.431 355.643 807.801 355.643ZM600.831 402.389L604.856 382.299C605.358 379.866 606.298 378.086 607.677 376.957C609.081 375.828 610.862 375.264 613.018 375.264C614.197 375.264 615.25 375.452 616.177 375.828C617.105 376.179 617.883 376.618 618.509 377.145L616.854 379.327C616.328 378.901 615.764 378.587 615.162 378.387C614.585 378.161 613.908 378.048 613.131 378.048C611.927 378.048 610.899 378.386 610.046 379.064C609.194 379.716 608.605 380.82 608.278 382.374L604.291 402.389H600.831ZM598.762 386.776L599.289 384.18L604.555 383.992H615.35L614.786 386.776H598.762ZM630.268 402.84C628.714 402.84 627.46 402.427 626.507 401.599C625.554 400.771 625.078 399.593 625.078 398.062C625.078 397.736 625.103 397.398 625.153 397.047C625.203 396.696 625.278 396.344 625.378 395.993L627.485 386.776H620.94L621.504 383.992H631.51L628.764 396.257C628.738 396.457 628.701 396.658 628.651 396.859C628.626 397.034 628.613 397.209 628.613 397.385C628.613 398.313 628.864 398.978 629.366 399.379C629.867 399.781 630.506 399.981 631.284 399.981C631.836 399.981 632.375 399.906 632.901 399.755C633.428 399.58 634.004 399.342 634.632 399.041L635.421 401.674C634.619 402.025 633.816 402.301 633.014 402.502C632.212 402.727 631.296 402.84 630.268 402.84ZM630.155 380.38C629.504 380.38 628.927 380.192 628.425 379.816C627.949 379.415 627.711 378.85 627.711 378.123C627.711 377.622 627.836 377.157 628.087 376.731C628.362 376.28 628.714 375.929 629.14 375.678C629.591 375.402 630.08 375.264 630.607 375.264C631.359 375.264 631.949 375.464 632.375 375.866C632.826 376.242 633.052 376.794 633.052 377.521C633.052 378.324 632.763 379.001 632.187 379.553C631.635 380.105 630.958 380.38 630.155 380.38ZM649.926 402.84C648.346 402.84 646.955 402.539 645.751 401.937C644.572 401.335 643.657 400.445 643.005 399.266C642.353 398.062 642.027 396.583 642.027 394.827C642.027 393.172 642.303 391.667 642.855 390.312C643.431 388.933 644.209 387.742 645.187 386.738C646.165 385.71 647.28 384.92 648.534 384.368C649.813 383.816 651.154 383.541 652.559 383.541C654.816 383.541 656.558 384.218 657.787 385.572C659.041 386.901 659.668 388.594 659.668 390.651C659.668 391.328 659.605 392.005 659.48 392.683C659.354 393.36 659.241 393.837 659.141 394.112H644.66L645.074 391.554H657.486L656.208 392.194C656.283 391.918 656.333 391.642 656.358 391.366C656.408 391.09 656.433 390.814 656.433 390.538C656.433 389.209 656.069 388.168 655.342 387.416C654.615 386.663 653.637 386.287 652.409 386.287C651.581 386.287 650.754 386.487 649.926 386.889C649.123 387.265 648.384 387.817 647.707 388.544C647.054 389.271 646.515 390.15 646.089 391.178C645.663 392.206 645.45 393.372 645.45 394.677C645.45 395.88 645.663 396.884 646.089 397.686C646.541 398.489 647.155 399.104 647.933 399.53C648.735 399.931 649.65 400.132 650.678 400.132C651.831 400.132 652.91 399.918 653.913 399.492C654.941 399.041 655.881 398.489 656.734 397.837L657.975 400.169C657.022 400.922 655.844 401.561 654.44 402.088C653.06 402.589 651.556 402.84 649.926 402.84ZM674.586 402.84C673.131 402.84 671.915 402.414 670.937 401.561C669.985 400.684 669.508 399.404 669.508 397.724C669.508 397.398 669.52 397.072 669.545 396.746C669.595 396.395 669.671 396.019 669.771 395.617L673.42 378.499H667.514L668.116 375.715H677.407L673.156 395.843C673.107 396.094 673.056 396.357 673.006 396.633C672.981 396.884 672.968 397.16 672.968 397.461C672.968 398.313 673.206 398.953 673.683 399.379C674.16 399.781 674.799 399.981 675.601 399.981C676.178 399.981 676.73 399.894 677.256 399.718C677.808 399.542 678.397 399.304 679.024 399.003L679.852 401.636C678.999 402.038 678.147 402.339 677.294 402.539C676.441 402.74 675.538 402.84 674.586 402.84ZM692.927 402.84C691.046 402.84 689.542 402.238 688.413 401.035C687.285 399.831 686.721 398.075 686.721 395.768C686.721 394.112 686.971 392.557 687.473 391.103C688 389.623 688.727 388.319 689.655 387.19C690.582 386.061 691.648 385.171 692.852 384.519C694.055 383.867 695.359 383.541 696.764 383.541C698.043 383.541 699.12 383.779 699.998 384.255C700.901 384.732 701.603 385.359 702.105 386.136H702.218L702.782 382.562L704.136 375.715H707.634L702.218 402.389H699.397L699.622 399.68H699.472C698.544 400.633 697.503 401.398 696.35 401.975C695.221 402.552 694.08 402.84 692.927 402.84ZM694.093 399.944C694.996 399.944 695.961 399.668 696.989 399.116C698.017 398.539 698.995 397.699 699.923 396.595L701.503 388.92C700.976 388.018 700.324 387.378 699.547 387.002C698.795 386.626 698.03 386.437 697.253 386.437C696.299 386.437 695.397 386.676 694.544 387.152C693.692 387.629 692.939 388.281 692.288 389.109C691.66 389.911 691.171 390.851 690.821 391.93C690.469 392.984 690.294 394.1 690.294 395.278C690.294 396.859 690.633 398.037 691.31 398.815C692.011 399.567 692.939 399.944 694.093 399.944ZM560.877 436.908C559.924 436.908 559.122 436.582 558.469 435.93C557.818 435.278 557.491 434.437 557.491 433.409C557.491 432.381 557.818 431.541 558.469 430.889C559.122 430.237 559.924 429.911 560.877 429.911C561.855 429.911 562.657 430.237 563.284 430.889C563.936 431.541 564.262 432.381 564.262 433.409C564.262 434.437 563.936 435.278 563.284 435.93C562.657 436.582 561.855 436.908 560.877 436.908ZM557.868 457.637L556.852 455.343C558.482 454.665 559.686 453.812 560.463 452.784C561.266 451.756 561.654 450.515 561.629 449.06L561.027 445.335L563.209 448.533C562.883 448.859 562.532 449.085 562.156 449.21C561.779 449.336 561.403 449.398 561.027 449.398C560.425 449.398 559.874 449.286 559.372 449.06C558.896 448.809 558.507 448.458 558.206 448.006C557.93 447.53 557.792 446.965 557.792 446.313C557.792 445.31 558.119 444.545 558.77 444.019C559.423 443.467 560.2 443.191 561.102 443.191C562.306 443.191 563.222 443.655 563.848 444.583C564.475 445.511 564.789 446.79 564.789 448.42C564.789 450.678 564.174 452.584 562.945 454.139C561.742 455.693 560.049 456.86 557.868 457.637Z" fill="#EAE6D8"/>
<path d="M403.001 402.84C401.121 402.84 399.453 402.339 397.999 401.335C396.569 400.307 395.441 398.84 394.613 396.934C393.811 395.003 393.41 392.683 393.41 389.974C393.41 387.29 393.811 385.008 394.613 383.127C395.441 381.22 396.569 379.778 397.999 378.8C399.453 377.797 401.121 377.295 403.001 377.295C404.882 377.295 406.537 377.797 407.966 378.8C409.421 379.778 410.549 381.22 411.352 383.127C412.179 385.008 412.593 387.29 412.593 389.974C412.593 392.683 412.179 395.003 411.352 396.934C410.549 398.84 409.421 400.307 407.966 401.335C406.537 402.339 404.882 402.84 403.001 402.84ZM403.001 399.567C404.155 399.567 405.158 399.191 406.01 398.439C406.863 397.661 407.527 396.558 408.004 395.128C408.481 393.698 408.719 391.98 408.719 389.974C408.719 387.968 408.481 386.275 408.004 384.895C407.527 383.491 406.863 382.424 406.01 381.697C405.158 380.945 404.155 380.569 403.001 380.569C401.848 380.569 400.845 380.945 399.992 381.697C399.139 382.424 398.475 383.491 397.999 384.895C397.522 386.275 397.284 387.968 397.284 389.974C397.284 391.98 397.522 393.698 397.999 395.128C398.475 396.558 399.139 397.661 399.992 398.439C400.845 399.191 401.848 399.567 403.001 399.567ZM417.731 402.389V377.747H425.667C427.373 377.747 428.89 377.973 430.219 378.424C431.548 378.85 432.588 379.59 433.341 380.644C434.118 381.697 434.507 383.101 434.507 384.857C434.507 386.563 434.118 387.968 433.341 389.071C432.588 390.174 431.548 391.002 430.219 391.554C428.89 392.106 427.373 392.382 425.667 392.382H421.492V402.389H417.731ZM421.492 389.334H425.216C427.022 389.334 428.401 388.97 429.354 388.243C430.307 387.491 430.783 386.362 430.783 384.857C430.783 383.352 430.307 382.299 429.354 381.697C428.401 381.07 427.022 380.757 425.216 380.757H421.492V389.334ZM424.953 391.366L427.774 389.221L435.372 402.389H431.121L424.953 391.366ZM439.946 402.389V377.747H446.19C448.648 377.747 450.729 378.211 452.434 379.139C454.164 380.067 455.481 381.446 456.384 383.277C457.286 385.083 457.738 387.315 457.738 389.974C457.738 392.633 457.286 394.89 456.384 396.746C455.481 398.601 454.19 400.006 452.509 400.959C450.829 401.912 448.786 402.389 446.378 402.389H439.946ZM443.708 399.342H445.965C447.695 399.342 449.136 398.991 450.29 398.288C451.469 397.561 452.359 396.508 452.961 395.128C453.563 393.748 453.864 392.031 453.864 389.974C453.864 387.917 453.563 386.212 452.961 384.857C452.359 383.503 451.469 382.487 450.29 381.81C449.136 381.133 447.695 380.794 445.965 380.794H443.708V399.342ZM463.478 402.389V377.747H478.975V380.907H467.239V387.942H477.169V391.102H467.239V399.229H479.351V402.389H463.478ZM485.392 402.389V377.747H493.329C495.034 377.747 496.551 377.973 497.88 378.424C499.209 378.85 500.25 379.59 501.002 380.644C501.78 381.697 502.168 383.101 502.168 384.857C502.168 386.563 501.78 387.968 501.002 389.071C500.25 390.174 499.209 391.002 497.88 391.554C496.551 392.106 495.034 392.382 493.329 392.382H489.154V402.389H485.392ZM489.154 389.334H492.877C494.683 389.334 496.062 388.97 497.015 388.243C497.968 387.491 498.444 386.362 498.444 384.857C498.444 383.352 497.968 382.299 497.015 381.697C496.062 381.07 494.683 380.757 492.877 380.757H489.154V389.334ZM492.614 391.366L495.435 389.221L503.033 402.389H498.783L492.614 391.366ZM530.5 402.389V377.747H537.834C539.515 377.747 540.994 377.947 542.273 378.349C543.577 378.725 544.593 379.352 545.32 380.23C546.072 381.108 546.448 382.287 546.448 383.766C546.448 384.97 546.097 386.074 545.395 387.077C544.692 388.08 543.615 388.77 542.16 389.146V389.297C543.94 389.572 545.32 390.2 546.297 391.178C547.275 392.156 547.764 393.485 547.764 395.166C547.764 396.796 547.363 398.15 546.561 399.229C545.783 400.282 544.692 401.072 543.288 401.599C541.884 402.126 540.267 402.389 538.436 402.389H530.5ZM534.261 387.98H537.383C539.289 387.98 540.655 387.667 541.483 387.039C542.336 386.388 542.762 385.434 542.762 384.18C542.762 382.951 542.323 382.086 541.445 381.584C540.568 381.083 539.251 380.832 537.496 380.832H534.261V387.98ZM534.261 399.304H537.985C539.941 399.304 541.445 398.965 542.498 398.288C543.552 397.586 544.078 396.47 544.078 394.94C544.078 393.536 543.552 392.532 542.498 391.93C541.471 391.303 539.966 390.99 537.985 390.99H534.261V399.304ZM558.996 402.389V393.736L550.796 377.747H554.783L558.206 384.707C558.657 385.635 559.097 386.576 559.523 387.528C559.949 388.457 560.401 389.422 560.877 390.425H561.027C561.504 389.422 561.967 388.457 562.419 387.528C562.87 386.576 563.322 385.622 563.773 384.669L567.045 377.747H570.957L562.757 393.736V402.389H558.996ZM396.494 449.587V424.945H400.218V446.426H412.066V449.587H396.494ZM417.656 449.587V446.426H423.674V428.105H417.656V424.945H433.453V428.105H427.435V446.426H433.453V449.587H417.656ZM439.382 449.587V424.945H443.745L446.943 434.989L448.033 438.827H448.184L449.275 434.989L452.472 424.945H456.835V449.587H453.375V438.488C453.375 437.861 453.4 437.134 453.45 436.306C453.5 435.453 453.55 434.576 453.6 433.673C453.675 432.77 453.738 431.917 453.788 431.114C453.864 430.312 453.926 429.622 453.976 429.045H453.864L452.321 434.35L449.199 443.04H446.867L443.783 434.35L442.278 429.045H442.166C442.241 429.622 442.304 430.312 442.354 431.114C442.429 431.917 442.492 432.77 442.542 433.673C442.592 434.576 442.642 435.453 442.692 436.306C442.742 437.134 442.767 437.861 442.767 438.488V449.587H439.382ZM462.763 449.587V446.426H468.781V428.105H462.763V424.945H478.561V428.105H472.543V446.426H478.561V449.587H462.763ZM491.335 449.587V428.105H483.399V424.945H503.033V428.105H495.097V449.587H491.335Z" fill="#D1CD74"/>
<path d="M528.619 449.587L533.96 422.913H537.421L533.923 440.407H534.073L545.132 431.19H549.269L539.602 439.579L533.02 444.884L532.08 449.587H528.619ZM538.023 440.181L540.317 437.849L546.335 449.587H542.724L538.023 440.181Z" fill="#EC6D3C"/>
<path d="M568.37 171.735V159.462H572.345C573.852 159.462 574.834 159.524 575.292 159.647C575.995 159.831 576.583 160.233 577.058 160.852C577.532 161.466 577.769 162.261 577.769 163.238C577.769 163.992 577.632 164.625 577.359 165.138C577.086 165.652 576.737 166.057 576.313 166.352C575.894 166.643 575.468 166.835 575.032 166.93C574.441 167.047 573.584 167.106 572.463 167.106H570.847V171.735H568.37ZM570.847 161.539V165.021H572.203C573.179 165.021 573.833 164.957 574.161 164.829C574.491 164.7 574.748 164.499 574.932 164.226C575.122 163.952 575.216 163.634 575.216 163.272C575.216 162.825 575.085 162.457 574.823 162.167C574.561 161.876 574.229 161.695 573.827 161.622C573.531 161.567 572.937 161.539 572.044 161.539H570.847ZM581.544 165.557L579.41 165.172C579.65 164.312 580.063 163.676 580.648 163.263C581.234 162.85 582.105 162.644 583.26 162.644C584.309 162.644 585.09 162.769 585.604 163.02C586.117 163.266 586.477 163.581 586.684 163.966C586.896 164.346 587.002 165.046 587.002 166.068L586.976 168.814C586.976 169.595 587.012 170.173 587.085 170.547C587.163 170.915 587.306 171.311 587.512 171.735H585.185C585.124 171.579 585.048 171.348 584.959 171.041C584.92 170.901 584.892 170.809 584.875 170.764C584.474 171.155 584.044 171.448 583.586 171.643C583.129 171.839 582.64 171.936 582.122 171.936C581.206 171.936 580.484 171.688 579.954 171.191C579.429 170.695 579.167 170.067 579.167 169.308C579.167 168.805 579.287 168.359 579.527 167.968C579.767 167.572 580.102 167.271 580.531 167.064C580.967 166.852 581.591 166.668 582.406 166.511C583.505 166.305 584.267 166.112 584.691 165.934V165.699C584.691 165.247 584.58 164.926 584.356 164.737C584.133 164.541 583.712 164.444 583.092 164.444C582.674 164.444 582.348 164.527 582.113 164.695C581.879 164.857 581.689 165.144 581.544 165.557ZM584.691 167.466C584.39 167.566 583.913 167.686 583.26 167.826C582.607 167.965 582.18 168.102 581.979 168.236C581.673 168.454 581.519 168.73 581.519 169.065C581.519 169.394 581.642 169.679 581.887 169.919C582.133 170.159 582.445 170.279 582.825 170.279C583.249 170.279 583.653 170.139 584.038 169.86C584.323 169.648 584.51 169.389 584.599 169.082C584.661 168.881 584.691 168.498 584.691 167.935V167.466ZM591.58 171.735H589.228V162.845H591.413V164.109C591.786 163.512 592.121 163.118 592.417 162.928C592.718 162.739 593.059 162.644 593.438 162.644C593.974 162.644 594.49 162.792 594.987 163.087L594.258 165.138C593.862 164.882 593.494 164.753 593.154 164.753C592.824 164.753 592.545 164.845 592.317 165.03C592.088 165.208 591.906 165.535 591.772 166.009C591.644 166.484 591.58 167.477 591.58 168.989V171.735ZM597.765 165.557L595.631 165.172C595.871 164.312 596.284 163.676 596.87 163.263C597.455 162.85 598.326 162.644 599.481 162.644C600.53 162.644 601.311 162.769 601.825 163.02C602.338 163.266 602.698 163.581 602.905 163.966C603.117 164.346 603.223 165.046 603.223 166.068L603.197 168.814C603.197 169.595 603.234 170.173 603.306 170.547C603.385 170.915 603.527 171.311 603.734 171.735H601.406C601.345 171.579 601.27 171.348 601.181 171.041C601.142 170.901 601.114 170.809 601.097 170.764C600.695 171.155 600.266 171.448 599.807 171.643C599.35 171.839 598.862 171.936 598.343 171.936C597.428 171.936 596.705 171.688 596.175 171.191C595.651 170.695 595.388 170.067 595.388 169.308C595.388 168.805 595.508 168.359 595.749 167.968C595.988 167.572 596.323 167.271 596.752 167.064C597.188 166.852 597.813 166.668 598.628 166.511C599.727 166.305 600.489 166.112 600.913 165.934V165.699C600.913 165.247 600.801 164.926 600.577 164.737C600.354 164.541 599.933 164.444 599.314 164.444C598.895 164.444 598.569 164.527 598.334 164.695C598.1 164.857 597.91 165.144 597.765 165.557ZM600.913 167.466C600.611 167.566 600.134 167.686 599.481 167.826C598.829 167.965 598.401 168.102 598.201 168.236C597.894 168.454 597.74 168.73 597.74 169.065C597.74 169.394 597.863 169.679 598.109 169.919C598.354 170.159 598.667 170.279 599.046 170.279C599.47 170.279 599.874 170.139 600.259 169.86C600.545 169.648 600.731 169.389 600.82 169.082C600.882 168.881 600.913 168.498 600.913 167.935V167.466ZM613.702 171.735H611.518V170.429C611.154 170.937 610.725 171.317 610.228 171.568C609.737 171.814 609.241 171.936 608.738 171.936C607.717 171.936 606.841 171.526 606.11 170.706C605.385 169.88 605.022 168.73 605.022 167.257C605.022 165.75 605.376 164.606 606.086 163.824C606.794 163.037 607.69 162.644 608.772 162.644C609.766 162.644 610.624 163.057 611.35 163.883V159.462H613.702V171.735ZM607.425 167.097C607.425 168.046 607.556 168.733 607.818 169.157C608.197 169.771 608.727 170.078 609.409 170.078C609.949 170.078 610.41 169.849 610.789 169.391C611.169 168.928 611.358 168.239 611.358 167.324C611.358 166.302 611.174 165.568 610.806 165.122C610.438 164.67 609.967 164.444 609.391 164.444C608.833 164.444 608.365 164.667 607.985 165.113C607.611 165.554 607.425 166.216 607.425 167.097ZM621.177 168.906L623.521 169.299C623.219 170.159 622.742 170.815 622.089 171.267C621.442 171.713 620.63 171.936 619.653 171.936C618.108 171.936 616.963 171.431 616.221 170.421C615.635 169.612 615.343 168.59 615.343 167.357C615.343 165.884 615.728 164.731 616.498 163.899C617.268 163.062 618.242 162.644 619.419 162.644C620.741 162.644 621.785 163.082 622.549 163.958C623.314 164.829 623.679 166.165 623.646 167.968H617.753C617.77 168.666 617.96 169.21 618.322 169.601C618.685 169.986 619.137 170.178 619.678 170.178C620.046 170.178 620.356 170.078 620.607 169.877C620.859 169.676 621.048 169.352 621.177 168.906ZM621.31 166.528C621.294 165.847 621.118 165.331 620.783 164.979C620.449 164.622 620.041 164.444 619.561 164.444C619.048 164.444 618.624 164.631 618.289 165.005C617.954 165.378 617.79 165.886 617.795 166.528H621.31ZM625.579 159.462H630.108C631.129 159.462 631.907 159.541 632.443 159.697C633.163 159.909 633.779 160.286 634.293 160.827C634.806 161.368 635.197 162.033 635.465 162.82C635.732 163.601 635.866 164.566 635.866 165.716C635.866 166.726 635.74 167.597 635.489 168.328C635.182 169.221 634.745 169.944 634.176 170.496C633.745 170.915 633.166 171.241 632.434 171.476C631.887 171.649 631.157 171.735 630.241 171.735H625.579V159.462ZM628.057 161.539V169.668H629.907C630.599 169.668 631.098 169.629 631.405 169.55C631.807 169.45 632.139 169.28 632.401 169.04C632.669 168.8 632.886 168.406 633.054 167.859C633.221 167.307 633.305 166.556 633.305 165.607C633.305 164.659 633.221 163.93 633.054 163.422C632.886 162.914 632.652 162.518 632.351 162.234C632.049 161.949 631.667 161.756 631.204 161.656C630.858 161.578 630.18 161.539 629.17 161.539H628.057ZM637.984 159.462H642.888C643.859 159.462 644.582 159.504 645.056 159.588C645.536 159.666 645.963 159.834 646.337 160.09C646.717 160.347 647.032 160.69 647.283 161.12C647.534 161.544 647.66 162.021 647.66 162.552C647.66 163.127 647.503 163.654 647.191 164.134C646.884 164.614 646.466 164.974 645.935 165.214C646.683 165.432 647.258 165.803 647.66 166.327C648.061 166.852 648.262 167.469 648.262 168.177C648.262 168.736 648.131 169.28 647.869 169.81C647.612 170.335 647.258 170.756 646.806 171.074C646.36 171.387 645.807 171.579 645.149 171.652C644.736 171.696 643.74 171.724 642.161 171.735H637.984V159.462ZM640.461 161.505V164.343H642.086C643.05 164.343 643.65 164.329 643.885 164.301C644.309 164.251 644.641 164.106 644.881 163.866C645.126 163.62 645.249 163.299 645.249 162.903C645.249 162.524 645.143 162.217 644.931 161.982C644.725 161.742 644.415 161.597 644.002 161.547C643.756 161.519 643.05 161.505 641.884 161.505H640.461ZM640.461 166.386V169.668H642.755C643.648 169.668 644.214 169.643 644.454 169.592C644.822 169.525 645.121 169.363 645.35 169.107C645.584 168.844 645.701 168.496 645.701 168.06C645.701 167.692 645.612 167.379 645.433 167.123C645.255 166.866 644.995 166.679 644.655 166.562C644.32 166.444 643.589 166.386 642.462 166.386H640.461Z" fill="#A3A5A8"/>
<path d="M189.998 176.006C195.521 176.006 199.998 171.528 199.998 166.004C199.998 160.481 195.521 156.003 189.998 156.003C184.475 156.003 179.999 160.481 179.999 166.004C179.999 171.528 184.475 176.006 189.998 176.006Z" fill="#ED6A5E"/>
<path d="M221.425 176.006C226.947 176.006 231.424 171.528 231.424 166.004C231.424 160.481 226.947 156.003 221.425 156.003C215.902 156.003 211.425 160.481 211.425 166.004C211.425 171.528 215.902 176.006 221.425 176.006Z" fill="#F4BF4F"/>
<path d="M252.852 176.006C258.375 176.006 262.852 171.528 262.852 166.004C262.852 160.481 258.375 156.003 252.852 156.003C247.329 156.003 242.853 160.481 242.853 166.004C242.853 171.528 247.329 176.006 252.852 176.006Z" fill="#61C554"/>
</g>
</g>
</g>
<defs>
<filter id="filter0_f_325_813" x="-272.38" y="-33.0359" width="879.861" height="852.883" filterUnits="userSpaceOnUse" color-interpolation-filters="sRGB">
<feFlood flood-opacity="0" result="BackgroundImageFix"/>
<feBlend mode="normal" in="SourceGraphic" in2="BackgroundImageFix" result="shape"/>
<feGaussianBlur stdDeviation="44.1621" result="effect1_foregroundBlur_325_813"/>
</filter>
<filter id="filter1_f_325_813" x="-230.118" y="-296.3" width="844.086" height="740.86" filterUnits="userSpaceOnUse" color-interpolation-filters="sRGB">
<feFlood flood-opacity="0" result="BackgroundImageFix"/>
<feBlend mode="normal" in="SourceGraphic" in2="BackgroundImageFix" result="shape"/>
<feGaussianBlur stdDeviation="44.1621" result="effect1_foregroundBlur_325_813"/>
</filter>
<filter id="filter2_f_325_813" x="-214.912" y="273.103" width="1500.82" height="498.835" filterUnits="userSpaceOnUse" color-interpolation-filters="sRGB">
<feFlood flood-opacity="0" result="BackgroundImageFix"/>
<feBlend mode="normal" in="SourceGraphic" in2="BackgroundImageFix" result="shape"/>
<feGaussianBlur stdDeviation="44.1621" result="effect1_foregroundBlur_325_813"/>
</filter>
<filter id="filter3_f_325_813" x="103.913" y="391.106" width="1120.47" height="640.282" filterUnits="userSpaceOnUse" color-interpolation-filters="sRGB">
<feFlood flood-opacity="0" result="BackgroundImageFix"/>
<feBlend mode="normal" in="SourceGraphic" in2="BackgroundImageFix" result="shape"/>
<feGaussianBlur stdDeviation="44.1621" result="effect1_foregroundBlur_325_813"/>
</filter>
<filter id="filter4_f_325_813" x="654.638" y="-204.833" width="821.686" height="652.199" filterUnits="userSpaceOnUse" color-interpolation-filters="sRGB">
<feFlood flood-opacity="0" result="BackgroundImageFix"/>
<feBlend mode="normal" in="SourceGraphic" in2="BackgroundImageFix" result="shape"/>
<feGaussianBlur stdDeviation="44.1621" result="effect1_foregroundBlur_325_813"/>
</filter>
<filter id="filter5_f_325_813" x="746.97" y="625.332" width="711.198" height="647.573" filterUnits="userSpaceOnUse" color-interpolation-filters="sRGB">
<feFlood flood-opacity="0" result="BackgroundImageFix"/>
<feBlend mode="normal" in="SourceGraphic" in2="BackgroundImageFix" result="shape"/>
<feGaussianBlur stdDeviation="44.1621" result="effect1_foregroundBlur_325_813"/>
</filter>
<filter id="filter6_d_325_813" x="146.369" y="132.37" width="907.186" height="585.183" filterUnits="userSpaceOnUse" color-interpolation-filters="sRGB">
<feFlood flood-opacity="0" result="BackgroundImageFix"/>
<feColorMatrix in="SourceAlpha" type="matrix" values="0 0 0 0 0 0 0 0 0 0 0 0 0 0 0 0 0 0 127 0" result="hardAlpha"/>
<feOffset/>
<feGaussianBlur stdDeviation="5.22196"/>
<feComposite in2="hardAlpha" operator="out"/>
<feColorMatrix type="matrix" values="0 0 0 0 0.745833 0 0 0 0 0.745833 0 0 0 0 0.745833 0 0 0 0.2 0"/>
<feBlend mode="normal" in2="BackgroundImageFix" result="effect1_dropShadow_325_813"/>
<feBlend mode="normal" in="SourceGraphic" in2="effect1_dropShadow_325_813" result="shape"/>
</filter>
<clipPath id="clip0_325_813">
<rect width="1200" height="630" fill="white"/>
</clipPath>
<clipPath id="clip1_325_813">
<rect width="900" height="578" fill="white" transform="translate(150 136)"/>
</clipPath>
</defs>
</svg>
